<svg xmlns="http://www.w3.org/2000/svg" width="720" height="520" viewBox="0 0 720 520"><ellipse cx="360" cy="410" rx="270" ry="34" fill="#05070c" opacity="0.28"/><g stroke-linecap="round" stroke-linejoin="round"><line x1="206.6" y1="194.5" x2="218.5" y2="205.8" stroke="rgb(23,24,29)" stroke-width="2.7"/><polygon points="198.9,291.5 215.2,240 302.4,224.3 353.5,240.1 357.8,314.4 235.7,325" fill="rgb(24,117,133)" stroke="rgb(24,117,133)" stroke-width="0.7"/><line x1="253.5" y1="344.6" x2="221.6" y2="345" stroke="rgb(106,111,119)" stroke-width="2.3"/><line x1="253.5" y1="344.6" x2="237.5" y2="316.1" stroke="rgb(106,111,119)" stroke-width="2.3"/><line x1="253.5" y1="344.6" x2="237.5" y2="373.5" stroke="rgb(106,111,119)" stroke-width="2.3"/><polygon points="309.4,344 308,331.2 303.8,319 297.1,308.1 288.2,299.1 277.6,292.5 265.8,288.5 253.5,287.3 241.2,289 229.6,293.5 219.2,300.5 210.5,309.6 204.1,320.5 200,332.6 198.7,345.2 200,357.9 204.1,369.8 210.5,380.6 219.2,389.6 229.6,396.3 241.2,400.6 253.5,402 265.8,400.6 277.6,396.3 288.2,389.4 297.1,380.2 303.8,369.2 308,357" fill="rgb(27,29,34)" stroke="rgb(27,29,34)" stroke-width="0.7"/><polygon points="288,344.3 287.2,336.3 284.6,328.8 280.5,322.1 275,316.5 268.4,312.4 261.1,309.8 253.5,309.1 245.9,310.1 238.6,312.9 232.2,317.2 226.8,322.9 222.7,329.6 220.2,337.1 219.4,345 220.2,352.9 222.7,360.3 226.8,367 232.2,372.6 238.6,376.8 245.9,379.3 253.5,380.2 261.1,379.3 268.4,376.6 275,372.3 280.5,366.6 284.6,359.8 287.2,352.2" fill="rgb(171,177,185)" stroke="rgb(171,177,185)" stroke-width="0.7"/><polygon points="266.8,344.5 266.5,341.4 265.5,338.5 263.9,335.9 261.8,333.8 259.3,332.2 256.4,331.2 253.5,330.9 250.5,331.3 247.7,332.3 245.2,334 243.1,336.2 241.5,338.8 240.6,341.7 240.2,344.8 240.6,347.8 241.5,350.7 243.1,353.3 245.2,355.5 247.7,357.1 250.5,358.1 253.5,358.4 256.4,358 259.3,357 261.8,355.3 263.9,353.1 265.5,350.5 266.5,347.6" fill="rgb(106,111,119)" stroke="rgb(106,111,119)" stroke-width="0.7"/><line x1="162.9" y1="166.3" x2="206.6" y2="194.5" stroke="rgb(16,16,19)" stroke-width="3.3"/><line x1="190.3" y1="194.4" x2="186.1" y2="181.3" stroke="rgb(27,28,34)" stroke-width="2.9"/><polygon points="353.1,305.5 436.3,304.1 436.3,326.3 353.1,327.5" fill="rgb(18,91,104)" stroke="rgb(18,91,104)" stroke-width="0.7"/><line x1="253.5" y1="344.6" x2="269.6" y2="315.6" stroke="rgb(106,111,119)" stroke-width="2.3"/><line x1="253.5" y1="344.6" x2="269.6" y2="373.4" stroke="rgb(106,111,119)" stroke-width="2.3"/><line x1="194.6" y1="256.1" x2="190.3" y2="194.4" stroke="rgb(87,93,102)" stroke-width="2.9"/><polygon points="172.4,282.6 189.9,227 215.2,240 198.9,291.5" fill="rgb(9,50,57)" stroke="rgb(9,50,57)" stroke-width="0.7"/><polygon points="191.7,330.8 190.3,343.8 198.7,345.2 200,332.6" fill="rgb(16,17,19)" stroke="rgb(16,17,19)" stroke-width="0.7"/><polygon points="190.3,343.8 191.7,356.7 200,357.9 198.7,345.2" fill="rgb(16,17,19)" stroke="rgb(16,17,19)" stroke-width="0.7"/><polygon points="195.8,318.5 191.7,330.8 200,332.6 204.1,320.5" fill="rgb(16,17,19)" stroke="rgb(16,17,19)" stroke-width="0.7"/><polygon points="191.7,356.7 195.8,369 204.1,369.8 200,357.9" fill="rgb(16,17,19)" stroke="rgb(16,17,19)" stroke-width="0.7"/><line x1="253.5" y1="344.6" x2="285.8" y2="344.3" stroke="rgb(106,111,119)" stroke-width="2.3"/><polygon points="202.5,307.3 195.8,318.5 204.1,320.5 210.5,309.6" fill="rgb(16,17,19)" stroke="rgb(16,17,19)" stroke-width="0.7"/><polygon points="195.8,369 202.5,380 210.5,380.6 204.1,369.8" fill="rgb(19,20,23)" stroke="rgb(19,20,23)" stroke-width="0.7"/><polygon points="212,318.7 172.4,282.6 198.9,291.5 235.7,325" fill="rgb(13,72,82)" stroke="rgb(13,72,82)" stroke-width="0.7"/><polygon points="202.5,380 211.3,389.3 219.2,389.6 210.5,380.6" fill="rgb(22,23,27)" stroke="rgb(22,23,27)" stroke-width="0.7"/><polygon points="211.3,297.9 202.5,307.3 210.5,309.6 219.2,300.5" fill="rgb(16,17,19)" stroke="rgb(16,17,19)" stroke-width="0.7"/><polygon points="211.3,389.3 221.9,396.2 229.6,396.3 219.2,389.6" fill="rgb(24,26,30)" stroke="rgb(24,26,30)" stroke-width="0.7"/><polygon points="221.9,290.7 211.3,297.9 219.2,300.5 229.6,293.5" fill="rgb(16,17,19)" stroke="rgb(16,17,19)" stroke-width="0.7"/><polygon points="221.9,396.2 233.8,400.5 241.2,400.6 229.6,396.3" fill="rgb(26,28,33)" stroke="rgb(26,28,33)" stroke-width="0.7"/><polygon points="233.8,286.1 221.9,290.7 229.6,293.5 241.2,289" fill="rgb(16,17,19)" stroke="rgb(16,17,19)" stroke-width="0.7"/><polygon points="246.4,284.4 233.8,286.1 241.2,289 253.5,287.3" fill="rgb(16,17,19)" stroke="rgb(16,17,19)" stroke-width="0.7"/><polygon points="233.8,400.5 246.4,402 253.5,402 241.2,400.6" fill="rgb(28,30,35)" stroke="rgb(28,30,35)" stroke-width="0.7"/><polygon points="189.9,227 283.8,209.8 302.4,224.3 215.2,240" fill="rgb(9,50,57)" stroke="rgb(9,50,57)" stroke-width="0.7"/><polygon points="246.4,402 259.1,400.5 265.8,400.6 253.5,402" fill="rgb(16,17,19)" stroke="rgb(16,17,19)" stroke-width="0.7"/><polygon points="259.1,285.6 246.4,284.4 253.5,287.3 265.8,288.5" fill="rgb(28,30,35)" stroke="rgb(28,30,35)" stroke-width="0.7"/><polygon points="431.8,228.3 481.1,222.3 481.1,240.2 431.8,246.1" fill="rgb(27,28,34)" stroke="rgb(27,28,34)" stroke-width="0.7"/><polygon points="259.1,400.5 271.2,396.1 277.6,396.3 265.8,400.6" fill="rgb(16,17,19)" stroke="rgb(16,17,19)" stroke-width="0.7"/><polygon points="271.2,289.7 259.1,285.6 265.8,288.5 277.6,292.5" fill="rgb(26,28,33)" stroke="rgb(26,28,33)" stroke-width="0.7"/><polygon points="436.1,326.1 440.6,241.2 476.5,195.2 512.9,207.5 490.1,275.8 481,325.5" fill="rgb(24,117,133)" stroke="rgb(24,117,133)" stroke-width="0.7"/><polygon points="271.2,396.1 282,389.1 288.2,389.4 277.6,396.3" fill="rgb(16,17,19)" stroke="rgb(16,17,19)" stroke-width="0.7"/><polygon points="282,296.5 271.2,289.7 277.6,292.5 288.2,299.1" fill="rgb(24,26,30)" stroke="rgb(24,26,30)" stroke-width="0.7"/><polygon points="343.7,307.2 212,318.7 235.7,325 357.8,314.4" fill="rgb(9,50,57)" stroke="rgb(9,50,57)" stroke-width="0.7"/><polygon points="282,389.1 291.2,379.7 297.1,380.2 288.2,389.4" fill="rgb(16,17,19)" stroke="rgb(16,17,19)" stroke-width="0.7"/><polygon points="291.2,305.7 282,296.5 288.2,299.1 297.1,308.1" fill="rgb(22,23,27)" stroke="rgb(22,23,27)" stroke-width="0.7"/><polygon points="291.2,379.7 298,368.4 303.8,369.2 297.1,380.2" fill="rgb(16,17,19)" stroke="rgb(16,17,19)" stroke-width="0.7"/><polygon points="298,316.8 291.2,305.7 297.1,308.1 303.8,319" fill="rgb(19,20,23)" stroke="rgb(19,20,23)" stroke-width="0.7"/><line x1="246.4" y1="343.2" x2="213.7" y2="343.5" stroke="rgb(106,111,119)" stroke-width="2.4"/><polygon points="298,368.4 302.3,355.8 308,357 303.8,369.2" fill="rgb(16,17,19)" stroke="rgb(16,17,19)" stroke-width="0.7"/><polygon points="302.3,329.3 298,316.8 303.8,319 308,331.2" fill="rgb(16,17,19)" stroke="rgb(16,17,19)" stroke-width="0.7"/><polygon points="303.8,342.5 302.3,329.3 308,331.2 309.4,344" fill="rgb(16,17,19)" stroke="rgb(16,17,19)" stroke-width="0.7"/><polygon points="302.3,355.8 303.8,342.5 309.4,344 308,357" fill="rgb(16,17,19)" stroke="rgb(16,17,19)" stroke-width="0.7"/><line x1="246.4" y1="343.2" x2="230" y2="372.8" stroke="rgb(106,111,119)" stroke-width="2.4"/><line x1="246.4" y1="343.2" x2="230" y2="313.9" stroke="rgb(106,111,119)" stroke-width="2.4"/><polygon points="303.8,342.5 302.3,329.3 298,316.8 291.2,305.7 282,296.5 271.2,289.7 259.1,285.6 246.4,284.4 233.8,286.1 221.9,290.7 211.3,297.9 202.5,307.3 195.8,318.5 191.7,330.8 190.3,343.8 191.7,356.7 195.8,369 202.5,380 211.3,389.3 221.9,396.2 233.8,400.5 246.4,402 259.1,400.5 271.2,396.1 282,389.1 291.2,379.7 298,368.4 302.3,355.8" fill="rgb(27,29,34)" stroke="rgb(27,29,34)" stroke-width="0.7"/><polygon points="260.1,343 259.7,339.9 258.7,336.9 257.1,334.2 254.9,332 252.4,330.4 249.5,329.4 246.4,329.1 243.4,329.5 240.5,330.5 238,332.3 235.8,334.5 234.2,337.2 233.2,340.2 232.9,343.3 233.2,346.5 234.2,349.4 235.8,352.1 238,354.3 240.5,355.9 243.4,357 246.4,357.3 249.5,356.9 252.4,355.8 254.9,354.1 257.1,351.9 258.7,349.2 259.7,346.2" fill="rgb(106,111,119)" stroke="rgb(106,111,119)" stroke-width="0.7"/><polygon points="281.8,342.8 280.9,334.6 278.3,326.9 274.1,320 268.5,314.3 261.7,310.1 254.3,307.5 246.4,306.7 238.6,307.8 231.2,310.6 224.6,315 219.1,320.9 214.9,327.8 212.4,335.5 211.5,343.6 212.4,351.6 214.9,359.3 219.1,366.1 224.6,371.8 231.2,376.1 238.6,378.8 246.4,379.6 254.3,378.7 261.7,376 268.5,371.6 274.1,365.7 278.3,358.7 280.9,351" fill="rgb(171,177,185)" stroke="rgb(171,177,185)" stroke-width="0.7"/><polygon points="283.8,209.8 339,226.7 353.5,240.1 302.4,224.3" fill="rgb(16,85,97)" stroke="rgb(16,85,97)" stroke-width="0.7"/><line x1="246.4" y1="343.2" x2="262.9" y2="313.4" stroke="rgb(106,111,119)" stroke-width="2.4"/><line x1="246.4" y1="343.2" x2="262.9" y2="372.6" stroke="rgb(106,111,119)" stroke-width="2.4"/><line x1="246.4" y1="343.2" x2="279.5" y2="342.8" stroke="rgb(106,111,119)" stroke-width="2.4"/><polygon points="339.5,321.7 339.5,298 353.1,305.5 353.1,327.5" fill="rgb(10,52,59)" stroke="rgb(10,52,59)" stroke-width="0.7"/><polygon points="339,226.7 343.7,307.2 357.8,314.4 353.5,240.1" fill="rgb(9,50,57)" stroke="rgb(9,50,57)" stroke-width="0.7"/><polygon points="339.5,298 429,296.3 436.3,304.1 353.1,305.5" fill="rgb(19,95,109)" stroke="rgb(19,95,109)" stroke-width="0.7"/><polygon points="429,320.3 339.5,321.7 353.1,327.5 436.3,326.3" fill="rgb(19,95,109)" stroke="rgb(19,95,109)" stroke-width="0.7"/><line x1="484.5" y1="342.1" x2="449.8" y2="342.5" stroke="rgb(106,111,119)" stroke-width="2.4"/><line x1="484.5" y1="342.1" x2="467.1" y2="372.3" stroke="rgb(106,111,119)" stroke-width="2.4"/><line x1="484.5" y1="342.1" x2="467.1" y2="312.3" stroke="rgb(106,111,119)" stroke-width="2.4"/><polygon points="545.6,341.4 544,328 539.5,315.2 532.1,303.9 522.4,294.5 510.9,287.6 498,283.4 484.5,282.2 471.2,284 458.5,288.6 447.2,296 437.8,305.5 430.7,316.9 426.3,329.5 424.8,342.7 426.3,355.9 430.7,368.4 437.8,379.6 447.2,389 458.5,396.1 471.2,400.5 484.5,402 498,400.5 510.9,396 522.4,388.8 532.1,379.2 539.5,367.7 544,354.9" fill="rgb(27,29,34)" stroke="rgb(27,29,34)" stroke-width="0.7"/><polygon points="522.2,341.7 521.3,333.4 518.5,325.5 514,318.5 508,312.7 500.8,308.3 492.9,305.7 484.5,304.9 476.2,306 468.4,308.9 461.3,313.4 455.4,319.4 451,326.4 448.3,334.3 447.4,342.5 448.3,350.7 451,358.5 455.4,365.4 461.3,371.3 468.4,375.6 476.2,378.3 484.5,379.2 492.9,378.3 500.8,375.5 508,371 514,365.1 518.5,357.9 521.3,350" fill="rgb(171,177,185)" stroke="rgb(171,177,185)" stroke-width="0.7"/><polygon points="499.1,341.9 498.7,338.7 497.6,335.7 495.9,333 493.6,330.7 490.8,329 487.8,328 484.5,327.7 481.3,328.1 478.3,329.2 475.5,331 473.2,333.3 471.5,336 470.5,339 470.1,342.2 470.5,345.4 471.5,348.4 473.2,351.2 475.5,353.4 478.3,355.1 481.3,356.1 484.5,356.5 487.8,356.1 490.8,355 493.6,353.2 495.9,350.9 497.6,348.2 498.7,345.1" fill="rgb(106,111,119)" stroke="rgb(106,111,119)" stroke-width="0.7"/><polygon points="423.9,327.8 422.3,341.3 424.8,342.7 426.3,329.5" fill="rgb(16,17,19)" stroke="rgb(16,17,19)" stroke-width="0.7"/><polygon points="422.3,341.3 423.9,354.8 426.3,355.9 424.8,342.7" fill="rgb(16,17,19)" stroke="rgb(16,17,19)" stroke-width="0.7"/><line x1="484.5" y1="342.1" x2="502.1" y2="311.7" stroke="rgb(106,111,119)" stroke-width="2.4"/><line x1="484.5" y1="342.1" x2="502.1" y2="372.1" stroke="rgb(106,111,119)" stroke-width="2.4"/><polygon points="428.3,314.9 423.9,327.8 426.3,329.5 430.7,316.9" fill="rgb(16,17,19)" stroke="rgb(16,17,19)" stroke-width="0.7"/><polygon points="423.9,354.8 428.3,367.6 430.7,368.4 426.3,355.9" fill="rgb(16,17,19)" stroke="rgb(16,17,19)" stroke-width="0.7"/><polygon points="424.4,234.2 424.4,215 431.8,228.3 431.8,246.1" fill="rgb(16,16,19)" stroke="rgb(16,16,19)" stroke-width="0.7"/><polygon points="429,296.3 429,320.3 436.3,326.3 436.3,304.1" fill="rgb(10,52,59)" stroke="rgb(10,52,59)" stroke-width="0.7"/><polygon points="428.3,367.6 435.6,379.1 437.8,379.6 430.7,368.4" fill="rgb(19,20,23)" stroke="rgb(19,20,23)" stroke-width="0.7"/><polygon points="435.6,303.2 428.3,314.9 430.7,316.9 437.8,305.5" fill="rgb(16,17,19)" stroke="rgb(16,17,19)" stroke-width="0.7"/><polygon points="429.3,320.5 434,229.3 440.6,241.2 436.1,326.1" fill="rgb(9,50,57)" stroke="rgb(9,50,57)" stroke-width="0.7"/><line x1="484.5" y1="342.1" x2="519.8" y2="341.7" stroke="rgb(106,111,119)" stroke-width="2.4"/><polygon points="435.6,379.1 445.2,388.7 447.2,389 437.8,379.6" fill="rgb(22,23,27)" stroke="rgb(22,23,27)" stroke-width="0.7"/><polygon points="445.2,293.4 435.6,303.2 437.8,305.5 447.2,296" fill="rgb(16,17,19)" stroke="rgb(16,17,19)" stroke-width="0.7"/><polygon points="445.2,388.7 456.8,396 458.5,396.1 447.2,389" fill="rgb(24,26,30)" stroke="rgb(24,26,30)" stroke-width="0.7"/><polygon points="456.8,285.9 445.2,293.4 447.2,296 458.5,288.6" fill="rgb(16,17,19)" stroke="rgb(16,17,19)" stroke-width="0.7"/><polygon points="424.4,215 477.4,208.4 481.1,222.3 431.8,228.3" fill="rgb(16,16,19)" stroke="rgb(16,16,19)" stroke-width="0.7"/><polygon points="477.4,227.8 424.4,234.2 431.8,246.1 481.1,240.2" fill="rgb(16,16,19)" stroke="rgb(16,16,19)" stroke-width="0.7"/><polygon points="434,229.3 472.6,179.8 476.5,195.2 440.6,241.2" fill="rgb(9,50,57)" stroke="rgb(9,50,57)" stroke-width="0.7"/><polygon points="477.5,319.8 429.3,320.5 436.1,326.1 481,325.5" fill="rgb(17,91,105)" stroke="rgb(17,91,105)" stroke-width="0.7"/><polygon points="456.8,396 469.8,400.5 471.2,400.5 458.5,396.1" fill="rgb(26,28,33)" stroke="rgb(26,28,33)" stroke-width="0.7"/><polygon points="469.8,281.1 456.8,285.9 458.5,288.6 471.2,284" fill="rgb(16,17,19)" stroke="rgb(16,17,19)" stroke-width="0.7"/><polygon points="469.8,400.5 483.5,402 484.5,402 471.2,400.5" fill="rgb(28,30,35)" stroke="rgb(28,30,35)" stroke-width="0.7"/><polygon points="483.5,279.3 469.8,281.1 471.2,284 484.5,282.2" fill="rgb(16,17,19)" stroke="rgb(16,17,19)" stroke-width="0.7"/><polygon points="477.4,208.4 477.4,227.8 481.1,240.2 481.1,222.3" fill="rgb(16,16,19)" stroke="rgb(16,16,19)" stroke-width="0.7"/><polygon points="487.2,266.4 477.5,319.8 481,325.5 490.1,275.8" fill="rgb(9,50,57)" stroke="rgb(9,50,57)" stroke-width="0.7"/><polygon points="172.4,282.6 189.9,227 283.8,209.8 339,226.7 343.7,307.2 212,318.7" fill="rgb(24,117,133)" stroke="rgb(24,117,133)" stroke-width="0.7"/><polygon points="497.3,280.5 483.5,279.3 484.5,282.2 498,283.4" fill="rgb(28,30,35)" stroke="rgb(28,30,35)" stroke-width="0.7"/><polygon points="483.5,402 497.3,400.5 498,400.5 484.5,402" fill="rgb(16,17,19)" stroke="rgb(16,17,19)" stroke-width="0.7"/><polygon points="472.6,179.8 511.7,192.9 512.9,207.5 476.5,195.2" fill="rgb(16,84,96)" stroke="rgb(16,84,96)" stroke-width="0.7"/><polygon points="511.7,192.9 487.2,266.4 490.1,275.8 512.9,207.5" fill="rgb(9,50,57)" stroke="rgb(9,50,57)" stroke-width="0.7"/><polygon points="497.3,400.5 510.4,395.9 510.9,396 498,400.5" fill="rgb(16,17,19)" stroke="rgb(16,17,19)" stroke-width="0.7"/><polygon points="510.4,284.8 497.3,280.5 498,283.4 510.9,287.6" fill="rgb(26,28,33)" stroke="rgb(26,28,33)" stroke-width="0.7"/><polygon points="510.4,395.9 522.3,388.5 522.4,388.8 510.9,396" fill="rgb(16,17,19)" stroke="rgb(16,17,19)" stroke-width="0.7"/><polygon points="522.3,291.9 510.4,284.8 510.9,287.6 522.4,294.5" fill="rgb(24,26,30)" stroke="rgb(24,26,30)" stroke-width="0.7"/><polygon points="532.2,301.5 522.3,291.9 522.4,294.5 532.1,303.9" fill="rgb(22,23,27)" stroke="rgb(22,23,27)" stroke-width="0.7"/><polygon points="522.3,388.5 532.2,378.7 532.1,379.2 522.4,388.8" fill="rgb(16,17,19)" stroke="rgb(16,17,19)" stroke-width="0.7"/><line x1="483.5" y1="340.6" x2="447.9" y2="341" stroke="rgb(106,111,119)" stroke-width="2.5"/><polygon points="539.7,313.1 532.2,301.5 532.1,303.9 539.5,315.2" fill="rgb(19,20,23)" stroke="rgb(19,20,23)" stroke-width="0.7"/><polygon points="532.2,378.7 539.7,366.9 539.5,367.7 532.1,379.2" fill="rgb(16,17,19)" stroke="rgb(16,17,19)" stroke-width="0.7"/><polygon points="544.4,326.2 539.7,313.1 539.5,315.2 544,328" fill="rgb(16,17,19)" stroke="rgb(16,17,19)" stroke-width="0.7"/><polygon points="539.7,366.9 544.4,353.8 544,354.9 539.5,367.7" fill="rgb(16,17,19)" stroke="rgb(16,17,19)" stroke-width="0.7"/><line x1="483.5" y1="340.6" x2="465.6" y2="310.1" stroke="rgb(106,111,119)" stroke-width="2.5"/><line x1="483.5" y1="340.6" x2="465.6" y2="371.6" stroke="rgb(106,111,119)" stroke-width="2.5"/><polygon points="544.4,353.8 546,339.9 545.6,341.4 544,354.9" fill="rgb(16,17,19)" stroke="rgb(16,17,19)" stroke-width="0.7"/><polygon points="546,339.9 544.4,326.2 544,328 545.6,341.4" fill="rgb(16,17,19)" stroke="rgb(16,17,19)" stroke-width="0.7"/><polygon points="522.1,340.2 521.1,331.7 518.2,323.6 513.6,316.4 507.5,310.5 500.2,306.1 492,303.4 483.5,302.6 475,303.7 466.9,306.6 459.7,311.3 453.7,317.4 449.2,324.6 446.4,332.6 445.4,341.1 446.4,349.5 449.2,357.4 453.7,364.6 459.7,370.5 466.9,375 475,377.8 483.5,378.7 492,377.7 500.2,374.8 507.5,370.2 513.6,364.1 518.2,356.9 521.1,348.7" fill="rgb(171,177,185)" stroke="rgb(171,177,185)" stroke-width="0.7"/><polygon points="546,339.9 544.4,326.2 539.7,313.1 532.2,301.5 522.3,291.9 510.4,284.8 497.3,280.5 483.5,279.3 469.8,281.1 456.8,285.9 445.2,293.4 435.6,303.2 428.3,314.9 423.9,327.8 422.3,341.3 423.9,354.8 428.3,367.6 435.6,379.1 445.2,388.7 456.8,396 469.8,400.5 483.5,402 497.3,400.5 510.4,395.9 522.3,388.5 532.2,378.7 539.7,366.9 544.4,353.8" fill="rgb(27,29,34)" stroke="rgb(27,29,34)" stroke-width="0.7"/><polygon points="498.3,340.5 498,337.2 496.9,334.1 495.1,331.3 492.7,329 489.9,327.3 486.8,326.2 483.5,325.9 480.2,326.3 477,327.4 474.2,329.2 471.9,331.6 470.1,334.4 469,337.5 468.7,340.8 469,344.1 470.1,347.2 471.9,349.9 474.2,352.2 477,354 480.2,355 483.5,355.4 486.8,355 489.9,353.8 492.7,352.1 495.1,349.7 496.9,346.9 498,343.8" fill="rgb(106,111,119)" stroke="rgb(106,111,119)" stroke-width="0.7"/><line x1="483.5" y1="340.6" x2="501.5" y2="309.5" stroke="rgb(106,111,119)" stroke-width="2.5"/><line x1="483.5" y1="340.6" x2="501.5" y2="371.4" stroke="rgb(106,111,119)" stroke-width="2.5"/><line x1="162.9" y1="166.3" x2="171.5" y2="176" stroke="rgb(28,29,34)" stroke-width="3.1"/><line x1="483.5" y1="340.6" x2="519.6" y2="340.2" stroke="rgb(106,111,119)" stroke-width="2.5"/><polygon points="339.5,298 429,296.3 429,320.3 339.5,321.7" fill="rgb(18,91,104)" stroke="rgb(18,91,104)" stroke-width="0.7"/><polygon points="424.4,215 477.4,208.4 477.4,227.8 424.4,234.2" fill="rgb(27,28,34)" stroke="rgb(27,28,34)" stroke-width="0.7"/><polygon points="429.3,320.5 434,229.3 472.6,179.8 511.7,192.9 487.2,266.4 477.5,319.8" fill="rgb(24,117,133)" stroke="rgb(24,117,133)" stroke-width="0.7"/></g></svg>