<svg xmlns="http://www.w3.org/2000/svg" width="720" height="520" viewBox="0 0 720 520"><ellipse cx="360" cy="410" rx="270" ry="34" fill="#05070c" opacity="0.28"/><g stroke-linecap="round" stroke-linejoin="round"><polygon points="496.8,315.2 498,331.1 514.6,329.8 513.4,313.6" fill="rgb(26,28,32)" stroke="rgb(26,28,32)" stroke-width="0.7"/><polygon points="498,331.1 496.8,346.8 513.4,345.8 514.6,329.8" fill="rgb(29,31,35)" stroke="rgb(29,31,35)" stroke-width="0.7"/><polygon points="493.2,299.8 496.8,315.2 513.4,313.6 509.8,298" fill="rgb(22,24,28)" stroke="rgb(22,24,28)" stroke-width="0.7"/><polygon points="496.8,346.8 493.2,361.6 509.8,360.9 513.4,345.8" fill="rgb(31,33,38)" stroke="rgb(31,33,38)" stroke-width="0.7"/><polygon points="493.2,361.6 487.4,375 504,374.5 509.8,360.9" fill="rgb(32,35,40)" stroke="rgb(32,35,40)" stroke-width="0.7"/><polygon points="487.4,285.6 493.2,299.8 509.8,298 504,283.5" fill="rgb(19,20,23)" stroke="rgb(19,20,23)" stroke-width="0.7"/><polygon points="487.4,375 479.6,386.2 496.2,386 504,374.5" fill="rgb(33,35,41)" stroke="rgb(33,35,41)" stroke-width="0.7"/><polygon points="479.6,273.3 487.4,285.6 504,283.5 496.2,271" fill="rgb(16,17,19)" stroke="rgb(16,17,19)" stroke-width="0.7"/><line x1="472.4" y1="170.8" x2="502.6" y2="163.1" stroke="rgb(27,28,34)" stroke-width="2.7"/><polygon points="479.6,386.2 470.2,394.8 486.7,394.6 496.2,386" fill="rgb(33,35,40)" stroke="rgb(33,35,40)" stroke-width="0.7"/><polygon points="470.2,263.4 479.6,273.3 496.2,271 486.7,260.9" fill="rgb(16,17,19)" stroke="rgb(16,17,19)" stroke-width="0.7"/><line x1="426.4" y1="181.2" x2="472.4" y2="170.8" stroke="rgb(168,70,0)" stroke-width="2.7"/><line x1="447.8" y1="327.5" x2="471.9" y2="304.4" stroke="rgb(77,81,87)" stroke-width="2.2"/><line x1="447.8" y1="327.5" x2="471.9" y2="354" stroke="rgb(77,81,87)" stroke-width="2.2"/><polygon points="470.2,394.8 459.4,400.2 475.9,400.1 486.7,394.6" fill="rgb(32,34,39)" stroke="rgb(32,34,39)" stroke-width="0.7"/><polygon points="459.4,256.5 470.2,263.4 486.7,260.9 475.9,253.8" fill="rgb(16,17,19)" stroke="rgb(16,17,19)" stroke-width="0.7"/><polygon points="414.1,325.1 415,314.6 417.5,304.8 421.6,296.1 427,289.2 433.4,284.3 440.5,281.7 447.8,281.3 455,283.3 461.8,287.4 467.8,293.5 472.7,301.2 476.4,310 478.7,319.7 479.5,329.7 478.7,339.7 476.4,349 472.7,357.4 467.8,364.3 461.8,369.6 455,372.7 447.8,373.7 440.5,372.3 433.4,368.7 427,362.9 421.6,355.2 417.5,346 415,335.8" fill="rgb(124,128,134)" stroke="rgb(124,128,134)" stroke-width="0.7"/><polygon points="435,326.6 435.3,322.6 436.3,318.9 437.8,315.5 439.9,312.9 442.3,310.9 445,309.8 447.8,309.6 450.6,310.3 453.2,311.9 455.6,314.2 457.6,317.2 459.1,320.6 460,324.4 460.3,328.4 460,332.3 459.1,336 457.6,339.2 455.6,341.9 453.2,343.9 450.6,345.1 447.8,345.4 445,344.8 442.3,343.3 439.9,341 437.8,338.1 436.3,334.5 435.3,330.7" fill="rgb(77,81,87)" stroke="rgb(77,81,87)" stroke-width="0.7"/><polygon points="392.3,323.6 393.8,306.3 398.1,290.1 404.9,276.1 413.9,265 424.4,257.3 435.9,253.2 447.8,253 459.4,256.5 470.2,263.4 479.6,273.3 487.4,285.6 493.2,299.8 496.8,315.2 498,331.1 496.8,346.8 493.2,361.6 487.4,375 479.6,386.2 470.2,394.8 459.4,400.2 447.8,402 435.9,400.1 424.4,394.5 413.9,385.2 404.9,372.8 398.1,357.8 393.8,341.1" fill="rgb(20,21,24)" stroke="rgb(20,21,24)" stroke-width="0.7"/><polygon points="447.8,253 459.4,256.5 475.9,253.8 464.3,250.3" fill="rgb(16,17,19)" stroke="rgb(16,17,19)" stroke-width="0.7"/><polygon points="459.4,400.2 447.8,402 464.3,402 475.9,400.1" fill="rgb(30,32,37)" stroke="rgb(30,32,37)" stroke-width="0.7"/><polygon points="462.5,198.6 422.1,182.3 461,172.4 501.7,189.7" fill="rgb(103,43,0)" stroke="rgb(103,43,0)" stroke-width="0.7"/><line x1="447.8" y1="327.5" x2="438.3" y2="285.4" stroke="rgb(77,81,87)" stroke-width="2.2"/><line x1="447.8" y1="327.5" x2="438.3" y2="368.3" stroke="rgb(77,81,87)" stroke-width="2.2"/><line x1="464.3" y1="326.1" x2="488.5" y2="302.6" stroke="rgb(77,81,87)" stroke-width="2.2"/><line x1="464.3" y1="326.1" x2="488.5" y2="353.2" stroke="rgb(77,81,87)" stroke-width="2.2"/><line x1="447.8" y1="327.5" x2="416.3" y2="325.3" stroke="rgb(77,81,87)" stroke-width="2.2"/><polygon points="447.8,402 435.9,400.1 452.4,400.1 464.3,402" fill="rgb(16,17,19)" stroke="rgb(16,17,19)" stroke-width="0.7"/><polygon points="435.9,253.2 447.8,253 464.3,250.3 452.4,250.4" fill="rgb(30,32,37)" stroke="rgb(30,32,37)" stroke-width="0.7"/><line x1="456.4" y1="173.6" x2="502.6" y2="163.1" stroke="rgb(168,70,0)" stroke-width="2.8"/><polygon points="391.2,261.3 462.5,198.6 501.7,189.7 429.9,254.8" fill="rgb(218,90,0)" stroke="rgb(218,90,0)" stroke-width="0.7"/><polygon points="408.7,322.1 410.1,304.4 414.5,288 421.3,273.7 430.3,262.4 440.9,254.5 452.4,250.4 464.3,250.3 475.9,253.8 486.7,260.9 496.2,271 504,283.5 509.8,298 513.4,313.6 514.6,329.8 513.4,345.8 509.8,360.9 504,374.5 496.2,386 486.7,394.6 475.9,400.1 464.3,402 452.4,400.1 440.9,394.3 430.3,384.9 421.3,372.2 414.5,357 410.1,339.9" fill="rgb(20,21,24)" stroke="rgb(20,21,24)" stroke-width="0.7"/><polygon points="430.5,323.7 431.4,312.9 434,302.9 438.1,294.1 443.5,287.1 449.9,282.1 457,279.4 464.3,279.1 471.6,281.1 478.3,285.3 484.3,291.5 489.3,299.3 493,308.4 495.3,318.2 496.1,328.4 495.3,338.5 493,348.1 489.3,356.6 484.3,363.7 478.3,369 471.6,372.2 464.3,373.2 457,371.8 449.9,368 443.5,362.1 438.1,354.3 434,344.9 431.4,334.5" fill="rgb(124,128,134)" stroke="rgb(124,128,134)" stroke-width="0.7"/><polygon points="451.5,325.2 451.8,321.1 452.8,317.3 454.3,313.9 456.4,311.2 458.8,309.2 461.5,308.1 464.3,307.9 467.1,308.6 469.8,310.2 472.2,312.6 474.1,315.6 475.6,319.1 476.5,323 476.8,327 476.5,331 475.6,334.8 474.1,338.1 472.2,340.8 469.8,342.8 467.1,344 464.3,344.3 461.5,343.7 458.8,342.2 456.4,339.9 454.3,336.9 452.8,333.3 451.8,329.3" fill="rgb(77,81,87)" stroke="rgb(77,81,87)" stroke-width="0.7"/><line x1="464.3" y1="326.1" x2="454.8" y2="283.2" stroke="rgb(77,81,87)" stroke-width="2.2"/><line x1="464.3" y1="326.1" x2="454.8" y2="367.7" stroke="rgb(77,81,87)" stroke-width="2.2"/><polygon points="435.9,400.1 424.4,394.5 440.9,394.3 452.4,400.1" fill="rgb(16,17,19)" stroke="rgb(16,17,19)" stroke-width="0.7"/><polygon points="424.4,257.3 435.9,253.2 452.4,250.4 440.9,254.5" fill="rgb(32,34,39)" stroke="rgb(32,34,39)" stroke-width="0.7"/><line x1="464.3" y1="326.1" x2="432.8" y2="323.8" stroke="rgb(77,81,87)" stroke-width="2.3"/><polygon points="422.1,182.3 397.5,219.7 436.3,211.3 461,172.4" fill="rgb(217,90,0)" stroke="rgb(217,90,0)" stroke-width="0.7"/><polygon points="424.4,394.5 413.9,385.2 430.3,384.9 440.9,394.3" fill="rgb(16,17,19)" stroke="rgb(16,17,19)" stroke-width="0.7"/><polygon points="413.9,265 424.4,257.3 440.9,254.5 430.3,262.4" fill="rgb(33,35,40)" stroke="rgb(33,35,40)" stroke-width="0.7"/><polygon points="413.9,385.2 404.9,372.8 421.3,372.2 430.3,384.9" fill="rgb(16,17,19)" stroke="rgb(16,17,19)" stroke-width="0.7"/><polygon points="404.9,276.1 413.9,265 430.3,262.4 421.3,273.7" fill="rgb(33,35,41)" stroke="rgb(33,35,41)" stroke-width="0.7"/><polygon points="398.1,290.1 404.9,276.1 421.3,273.7 414.5,288" fill="rgb(32,35,40)" stroke="rgb(32,35,40)" stroke-width="0.7"/><polygon points="404.9,372.8 398.1,357.8 414.5,357 421.3,372.2" fill="rgb(19,20,23)" stroke="rgb(19,20,23)" stroke-width="0.7"/><polygon points="398.1,357.8 393.8,341.1 410.1,339.9 414.5,357" fill="rgb(22,24,28)" stroke="rgb(22,24,28)" stroke-width="0.7"/><polygon points="393.8,306.3 398.1,290.1 414.5,288 410.1,304.4" fill="rgb(31,33,38)" stroke="rgb(31,33,38)" stroke-width="0.7"/><polygon points="462.5,198.6 422.1,182.3 397.5,219.7 337.9,183.1 275.4,176 251.7,214.8 301.9,254.6 391.2,261.3" fill="rgb(168,70,0)" stroke="rgb(168,70,0)" stroke-width="0.7"/><polygon points="392.3,323.6 393.8,306.3 410.1,304.4 408.7,322.1" fill="rgb(29,31,35)" stroke="rgb(29,31,35)" stroke-width="0.7"/><polygon points="393.8,341.1 392.3,323.6 408.7,322.1 410.1,339.9" fill="rgb(26,28,32)" stroke="rgb(26,28,32)" stroke-width="0.7"/><line x1="389.8" y1="261.6" x2="311.6" y2="197" stroke="rgb(168,70,0)" stroke-width="2.9"/><line x1="386.6" y1="209.9" x2="315.2" y2="261.2" stroke="rgb(168,70,0)" stroke-width="2.9"/><polygon points="397.5,219.7 337.9,183.1 376,172.4 436.3,211.3" fill="rgb(103,43,0)" stroke="rgb(103,43,0)" stroke-width="0.7"/><polygon points="411.6,319.5 364.3,324.1 364.3,259.2 411.6,250.8" fill="rgb(27,28,34)" stroke="rgb(27,28,34)" stroke-width="0.7"/><polygon points="364.3,324.1 290.4,319 290.4,249.9 364.3,259.2" fill="rgb(20,20,24)" stroke="rgb(20,20,24)" stroke-width="0.7"/><line x1="401.5" y1="309.5" x2="472.1" y2="292.4" stroke="rgb(67,71,78)" stroke-width="3.4"/><polygon points="301.9,254.6 391.2,261.3 429.9,254.8 339.4,247.2" fill="rgb(191,79,0)" stroke="rgb(191,79,0)" stroke-width="0.7"/><line x1="239" y1="154.3" x2="245.6" y2="176.4" stroke="rgb(16,16,19)" stroke-width="3"/><polygon points="501.7,189.7 461,172.4 436.3,211.3 376,172.4 312.4,164.4 288.2,205 339.4,247.2 429.9,254.8" fill="rgb(168,70,0)" stroke="rgb(168,70,0)" stroke-width="0.7"/><polygon points="411.6,319.5 336.4,313.8 290.4,319 364.3,324.1" fill="rgb(29,30,35)" stroke="rgb(29,30,35)" stroke-width="0.7"/><polygon points="364.3,259.2 290.4,249.9 336.4,240.4 411.6,250.8" fill="rgb(16,16,19)" stroke="rgb(16,16,19)" stroke-width="0.7"/><line x1="428.2" y1="200.3" x2="355.9" y2="253.7" stroke="rgb(168,70,0)" stroke-width="3"/><line x1="431.5" y1="254.5" x2="352.2" y2="186" stroke="rgb(168,70,0)" stroke-width="3"/><polygon points="337.9,183.1 275.4,176 312.4,164.4 376,172.4" fill="rgb(193,80,0)" stroke="rgb(193,80,0)" stroke-width="0.7"/><polygon points="336.4,313.8 411.6,319.5 411.6,250.8 336.4,240.4" fill="rgb(20,20,24)" stroke="rgb(20,20,24)" stroke-width="0.7"/><polygon points="290.4,319 336.4,313.8 336.4,240.4 290.4,249.9" fill="rgb(27,28,34)" stroke="rgb(27,28,34)" stroke-width="0.7"/><polygon points="300.1,298 301.8,317.1 316.1,315.4 314.4,296" fill="rgb(26,28,32)" stroke="rgb(26,28,32)" stroke-width="0.7"/><polygon points="301.8,317.1 300.1,335.9 314.4,334.6 316.1,315.4" fill="rgb(29,31,35)" stroke="rgb(29,31,35)" stroke-width="0.7"/><polygon points="295,279.5 300.1,298 314.4,296 309.3,277.1" fill="rgb(22,24,28)" stroke="rgb(22,24,28)" stroke-width="0.7"/><polygon points="300.1,335.9 295,353.6 309.3,352.7 314.4,334.6" fill="rgb(31,33,38)" stroke="rgb(31,33,38)" stroke-width="0.7"/><polygon points="295,353.6 286.7,369.6 300.9,369 309.3,352.7" fill="rgb(32,35,40)" stroke="rgb(32,35,40)" stroke-width="0.7"/><polygon points="286.7,262.4 295,279.5 309.3,277.1 300.9,259.6" fill="rgb(19,20,23)" stroke="rgb(19,20,23)" stroke-width="0.7"/><polygon points="251.7,214.8 301.9,254.6 339.4,247.2 288.2,205" fill="rgb(103,43,0)" stroke="rgb(103,43,0)" stroke-width="0.7"/><polygon points="286.7,369.6 275.5,383.1 289.6,382.7 300.9,369" fill="rgb(33,35,41)" stroke="rgb(33,35,41)" stroke-width="0.7"/><polygon points="275.5,247.3 286.7,262.4 300.9,259.6 289.6,244.3" fill="rgb(16,17,19)" stroke="rgb(16,17,19)" stroke-width="0.7"/><line x1="239" y1="154.3" x2="329.8" y2="121.3" stroke="rgb(27,28,34)" stroke-width="3.6"/><polygon points="275.4,176 251.7,214.8 288.2,205 312.4,164.4" fill="rgb(215,89,0)" stroke="rgb(215,89,0)" stroke-width="0.7"/><line x1="263.8" y1="186.2" x2="222.6" y2="310.3" stroke="rgb(63,67,74)" stroke-width="3.6"/><line x1="277.6" y1="182" x2="281.6" y2="138.8" stroke="rgb(20,20,24)" stroke-width="3.2"/><polygon points="261.8,235.1 275.5,247.3 289.6,244.3 275.8,231.8" fill="rgb(16,17,19)" stroke="rgb(16,17,19)" stroke-width="0.7"/><polygon points="275.5,383.1 261.8,393.3 275.8,393.1 289.6,382.7" fill="rgb(33,35,40)" stroke="rgb(33,35,40)" stroke-width="0.7"/><line x1="229.3" y1="311.9" x2="264.4" y2="284.5" stroke="rgb(77,81,87)" stroke-width="2.6"/><line x1="229.3" y1="311.9" x2="264.4" y2="344.3" stroke="rgb(77,81,87)" stroke-width="2.6"/><polygon points="246.2,226.5 261.8,235.1 275.8,231.8 260.1,222.9" fill="rgb(16,17,19)" stroke="rgb(16,17,19)" stroke-width="0.7"/><polygon points="261.8,393.3 246.2,399.8 260.1,399.7 275.8,393.1" fill="rgb(32,34,39)" stroke="rgb(32,34,39)" stroke-width="0.7"/><polygon points="179.7,308.4 181,295.6 184.8,283.7 190.9,273.3 198.8,265.1 208.2,259.3 218.6,256.3 229.3,256.1 239.8,258.7 249.6,263.8 258.3,271.3 265.5,280.7 270.8,291.4 274.1,303.1 275.2,315.2 274.1,327.1 270.8,338.3 265.5,348.3 258.3,356.6 249.6,362.9 239.8,366.7 229.3,367.8 218.6,366.1 208.2,361.6 198.8,354.5 190.9,345.1 184.8,333.8 181,321.4" fill="rgb(124,128,134)" stroke="rgb(124,128,134)" stroke-width="0.7"/><polygon points="147.4,306.1 149.6,285 156,265.4 166.2,248.5 179.4,235.2 195,226.1 211.9,221.7 229.3,221.8 246.2,226.5 261.8,235.1 275.5,247.3 286.7,262.4 295,279.5 300.1,298 301.8,317.1 300.1,335.9 295,353.6 286.7,369.6 275.5,383.1 261.8,393.3 246.2,399.8 229.3,402 211.9,399.7 195,392.8 179.4,381.6 166.2,366.4 156,348.1 149.6,327.6" fill="rgb(20,21,24)" stroke="rgb(20,21,24)" stroke-width="0.7"/><polygon points="210.5,310.6 211,305.7 212.4,301.2 214.7,297.2 217.7,294 221.2,291.7 225.2,290.5 229.3,290.3 233.4,291.2 237.2,293.1 240.7,296 243.5,299.6 245.7,303.8 247,308.4 247.5,313.2 247,317.9 245.7,322.3 243.5,326.3 240.7,329.5 237.2,331.8 233.4,333.2 229.3,333.5 225.2,332.8 221.2,330.9 217.7,328.2 214.7,324.5 212.4,320.2 211,315.5" fill="rgb(77,81,87)" stroke="rgb(77,81,87)" stroke-width="0.7"/><polygon points="246.2,399.8 229.3,402 243,402 260.1,399.7" fill="rgb(30,32,37)" stroke="rgb(30,32,37)" stroke-width="0.7"/><polygon points="229.3,221.8 246.2,226.5 260.1,222.9 243,218.2" fill="rgb(16,17,19)" stroke="rgb(16,17,19)" stroke-width="0.7"/><line x1="229.3" y1="311.9" x2="215.3" y2="260.7" stroke="rgb(77,81,87)" stroke-width="2.6"/><line x1="229.3" y1="311.9" x2="215.3" y2="361.2" stroke="rgb(77,81,87)" stroke-width="2.6"/><line x1="243" y1="310.1" x2="278.4" y2="282.2" stroke="rgb(77,81,87)" stroke-width="2.6"/><line x1="243" y1="310.1" x2="278.4" y2="343.1" stroke="rgb(77,81,87)" stroke-width="2.6"/><line x1="292" y1="177.6" x2="250.1" y2="306.5" stroke="rgb(63,67,74)" stroke-width="3.8"/><polygon points="229.3,402 211.9,399.7 225.5,399.7 243,402" fill="rgb(16,17,19)" stroke="rgb(16,17,19)" stroke-width="0.7"/><polygon points="211.9,221.7 229.3,221.8 243,218.2 225.5,217.9" fill="rgb(30,32,37)" stroke="rgb(30,32,37)" stroke-width="0.7"/><line x1="229.3" y1="311.9" x2="183" y2="308.6" stroke="rgb(77,81,87)" stroke-width="2.7"/><polygon points="224.1,308.7 224.6,303.8 226,299.1 228.3,295.1 231.3,291.8 234.9,289.5 238.9,288.2 243,288 247.2,288.9 251.1,290.9 254.5,293.8 257.4,297.5 259.6,301.8 260.9,306.5 261.4,311.4 260.9,316.2 259.6,320.7 257.4,324.7 254.5,328 251.1,330.4 247.2,331.8 243,332.1 238.9,331.4 234.9,329.5 231.3,326.6 228.3,322.9 226,318.5 224.6,313.7" fill="rgb(77,81,87)" stroke="rgb(77,81,87)" stroke-width="0.7"/><polygon points="160.3,304 162.5,282.4 169,262.4 179.2,245.2 192.7,231.7 208.4,222.5 225.5,217.9 243,218.2 260.1,222.9 275.8,231.8 289.6,244.3 300.9,259.6 309.3,277.1 314.4,296 316.1,315.4 314.4,334.6 309.3,352.7 300.9,369 289.6,382.7 275.8,393.1 260.1,399.7 243,402 225.5,399.7 208.4,392.6 192.7,381.1 179.2,365.6 169,346.9 162.5,326" fill="rgb(20,21,24)" stroke="rgb(20,21,24)" stroke-width="0.7"/><polygon points="193,306.4 194.3,293.3 198.1,281.2 204.2,270.6 212.3,262.2 221.8,256.3 232.2,253.2 243,253.1 253.6,255.8 263.6,261.1 272.3,268.7 279.6,278.2 284.9,289.2 288.3,301.2 289.4,313.5 288.3,325.6 284.9,337 279.6,347.2 272.3,355.7 263.6,362.1 253.6,365.9 243,367.1 232.2,365.3 221.8,360.7 212.3,353.5 204.2,343.9 198.1,332.4 194.3,319.7" fill="rgb(124,128,134)" stroke="rgb(124,128,134)" stroke-width="0.7"/><line x1="243" y1="310.1" x2="229" y2="257.8" stroke="rgb(77,81,87)" stroke-width="2.7"/><line x1="243" y1="310.1" x2="229" y2="360.3" stroke="rgb(77,81,87)" stroke-width="2.7"/><polygon points="211.9,399.7 195,392.8 208.4,392.6 225.5,399.7" fill="rgb(16,17,19)" stroke="rgb(16,17,19)" stroke-width="0.7"/><polygon points="195,226.1 211.9,221.7 225.5,217.9 208.4,222.5" fill="rgb(32,34,39)" stroke="rgb(32,34,39)" stroke-width="0.7"/><line x1="329.8" y1="121.3" x2="348.5" y2="142.7" stroke="rgb(26,26,32)" stroke-width="3.4"/><line x1="243" y1="310.1" x2="196.3" y2="306.7" stroke="rgb(77,81,87)" stroke-width="2.7"/><polygon points="195,392.8 179.4,381.6 192.7,381.1 208.4,392.6" fill="rgb(16,17,19)" stroke="rgb(16,17,19)" stroke-width="0.7"/><polygon points="179.4,235.2 195,226.1 208.4,222.5 192.7,231.7" fill="rgb(33,35,40)" stroke="rgb(33,35,40)" stroke-width="0.7"/><polygon points="179.4,381.6 166.2,366.4 179.2,365.6 192.7,381.1" fill="rgb(16,17,19)" stroke="rgb(16,17,19)" stroke-width="0.7"/><polygon points="166.2,248.5 179.4,235.2 192.7,231.7 179.2,245.2" fill="rgb(33,35,41)" stroke="rgb(33,35,41)" stroke-width="0.7"/><polygon points="166.2,366.4 156,348.1 169,346.9 179.2,365.6" fill="rgb(19,20,23)" stroke="rgb(19,20,23)" stroke-width="0.7"/><polygon points="156,265.4 166.2,248.5 179.2,245.2 169,262.4" fill="rgb(32,35,40)" stroke="rgb(32,35,40)" stroke-width="0.7"/><polygon points="156,348.1 149.6,327.6 162.5,326 169,346.9" fill="rgb(22,24,28)" stroke="rgb(22,24,28)" stroke-width="0.7"/><polygon points="149.6,285 156,265.4 169,262.4 162.5,282.4" fill="rgb(31,33,38)" stroke="rgb(31,33,38)" stroke-width="0.7"/><polygon points="149.6,327.6 147.4,306.1 160.3,304 162.5,326" fill="rgb(26,28,32)" stroke="rgb(26,28,32)" stroke-width="0.7"/><polygon points="147.4,306.1 149.6,285 162.5,282.4 160.3,304" fill="rgb(29,31,35)" stroke="rgb(29,31,35)" stroke-width="0.7"/></g></svg>