<svg xmlns="http://www.w3.org/2000/svg" width="720" height="520" viewBox="0 0 720 520"><ellipse cx="360" cy="410" rx="270" ry="34" fill="#05070c" opacity="0.28"/><g stroke-linecap="round" stroke-linejoin="round"><polygon points="319,319.8 318.8,334.9 339.1,335.1 339.4,320.1" fill="rgb(24,25,29)" stroke="rgb(24,25,29)" stroke-width="0.7"/><polygon points="318.8,334.9 319,349.7 339.4,349.9 339.1,335.1" fill="rgb(27,28,33)" stroke="rgb(27,28,33)" stroke-width="0.7"/><polygon points="319.7,305.1 319,319.8 339.4,320.1 340.1,305.5" fill="rgb(20,22,25)" stroke="rgb(20,22,25)" stroke-width="0.7"/><polygon points="319,349.7 319.7,363.7 340.1,363.9 339.4,349.9" fill="rgb(29,31,36)" stroke="rgb(29,31,36)" stroke-width="0.7"/><polygon points="319.7,363.7 320.8,376.3 341.3,376.4 340.1,363.9" fill="rgb(31,33,38)" stroke="rgb(31,33,38)" stroke-width="0.7"/><polygon points="320.8,291.4 319.7,305.1 340.1,305.5 341.3,291.8" fill="rgb(17,18,21)" stroke="rgb(17,18,21)" stroke-width="0.7"/><polygon points="320.8,376.3 322.2,387 343,387 341.3,376.4" fill="rgb(32,34,39)" stroke="rgb(32,34,39)" stroke-width="0.7"/><polygon points="322.2,279.2 320.8,291.4 341.3,291.8 343,279.7" fill="rgb(16,17,19)" stroke="rgb(16,17,19)" stroke-width="0.7"/><line x1="313.8" y1="179.4" x2="351.6" y2="180.9" stroke="rgb(25,26,31)" stroke-width="2.5"/><polygon points="322.2,387 324,395.1 345.1,395.1 343,387" fill="rgb(32,34,39)" stroke="rgb(32,34,39)" stroke-width="0.7"/><polygon points="324,269.2 322.2,279.2 343,279.7 345.1,269.7" fill="rgb(16,17,19)" stroke="rgb(16,17,19)" stroke-width="0.7"/><polygon points="324,395.1 326.1,400.2 347.5,400.2 345.1,395.1" fill="rgb(31,33,38)" stroke="rgb(31,33,38)" stroke-width="0.7"/><polygon points="326.1,261.9 324,269.2 345.1,269.7 347.5,262.5" fill="rgb(16,17,19)" stroke="rgb(16,17,19)" stroke-width="0.7"/><line x1="350" y1="330.2" x2="344.7" y2="308.9" stroke="rgb(92,96,103)" stroke-width="2.1"/><line x1="350" y1="330.2" x2="344.7" y2="356.3" stroke="rgb(92,96,103)" stroke-width="2.1"/><line x1="362.4" y1="186.5" x2="351.6" y2="180.9" stroke="rgb(201,84,0)" stroke-width="2.6"/><line x1="328.3" y1="329.9" x2="323.7" y2="308.6" stroke="rgb(92,96,103)" stroke-width="2.1"/><line x1="328.3" y1="329.9" x2="323.7" y2="356.1" stroke="rgb(92,96,103)" stroke-width="2.1"/><line x1="322" y1="184.9" x2="313.8" y2="179.4" stroke="rgb(201,84,0)" stroke-width="2.6"/><polygon points="326.1,400.2 328.3,402 350,402 347.5,400.2" fill="rgb(30,32,36)" stroke="rgb(30,32,36)" stroke-width="0.7"/><polygon points="328.3,257.8 326.1,261.9 347.5,262.5 350,258.4" fill="rgb(16,17,19)" stroke="rgb(16,17,19)" stroke-width="0.7"/><polygon points="309,204.5 315.9,184.6 368.4,186.7 358.6,206.3" fill="rgb(103,43,0)" stroke="rgb(103,43,0)" stroke-width="0.7"/><polygon points="362.7,324.5 362.3,307.4 361.3,291.7 359.8,278.3 357.7,267.9 355.3,261 352.7,257.8 350,258.4 347.5,262.5 345.1,269.7 343,279.7 341.3,291.8 340.1,305.5 339.4,320.1 339.1,335.1 339.4,349.9 340.1,363.9 341.3,376.4 343,387 345.1,395.1 347.5,400.2 350,402 352.7,400.2 355.3,394.7 357.7,385.6 359.8,373.3 361.3,358.4 362.3,341.8" fill="rgb(24,25,29)" stroke="rgb(24,25,29)" stroke-width="0.7"/><polygon points="357.6,326.7 357.4,316.5 356.9,306.9 355.9,298.7 354.7,292.2 353.2,287.8 351.7,285.6 350,285.7 348.4,287.9 346.9,292.3 345.6,298.3 344.5,305.9 343.7,314.5 343.2,323.8 343.1,333.3 343.2,342.7 343.7,351.6 344.5,359.5 345.6,366 346.9,370.9 348.4,373.9 350,374.7 351.7,373.3 353.2,369.7 354.7,363.9 355.9,356.3 356.9,347.2 357.4,337.2" fill="rgb(148,153,160)" stroke="rgb(148,153,160)" stroke-width="0.7"/><polygon points="352.9,328.9 352.8,325 352.6,321.4 352.3,318.3 351.8,315.8 351.3,314 350.7,313 350,313 349.4,313.7 348.8,315.3 348.3,317.6 347.8,320.6 347.5,324 347.3,327.6 347.3,331.4 347.3,335.2 347.5,338.7 347.8,341.8 348.3,344.3 348.8,346.1 349.4,347.2 350,347.4 350.7,346.8 351.3,345.3 351.8,343 352.3,340.1 352.6,336.6 352.8,332.8" fill="rgb(92,96,103)" stroke="rgb(92,96,103)" stroke-width="0.7"/><polygon points="339.3,324.1 339,307 338.1,291.2 336.7,277.7 334.9,267.3 332.8,260.4 330.6,257.2 328.3,257.8 326.1,261.9 324,269.2 322.2,279.2 320.8,291.4 319.7,305.1 319,319.8 318.8,334.9 319,349.7 319.7,363.7 320.8,376.3 322.2,387 324,395.1 326.1,400.2 328.3,402 330.6,400.2 332.8,394.6 334.9,385.5 336.7,373.2 338.1,358.3 339,341.6" fill="rgb(24,25,29)" stroke="rgb(24,25,29)" stroke-width="0.7"/><polygon points="334.9,326.4 334.7,316.1 334.2,306.6 333.4,298.3 332.3,291.8 331.1,287.3 329.7,285.1 328.3,285.2 326.9,287.5 325.6,291.8 324.5,297.9 323.5,305.5 322.8,314.1 322.4,323.5 322.3,333.1 322.4,342.5 322.8,351.4 323.5,359.3 324.5,365.9 325.6,370.8 326.9,373.8 328.3,374.6 329.7,373.2 331.1,369.5 332.3,363.8 333.4,356.1 334.2,347 334.7,336.9" fill="rgb(148,153,160)" stroke="rgb(148,153,160)" stroke-width="0.7"/><polygon points="330.8,328.6 330.7,324.7 330.5,321.1 330.2,317.9 329.8,315.4 329.4,313.6 328.8,312.7 328.3,312.6 327.7,313.4 327.2,315 326.8,317.3 326.4,320.2 326.1,323.6 325.9,327.3 325.9,331.2 325.9,334.9 326.1,338.4 326.4,341.5 326.8,344.1 327.2,345.9 327.7,347 328.3,347.2 328.8,346.6 329.4,345.1 329.8,342.8 330.2,339.8 330.5,336.4 330.7,332.5" fill="rgb(92,96,103)" stroke="rgb(92,96,103)" stroke-width="0.7"/><line x1="350" y1="330.2" x2="352.2" y2="289.1" stroke="rgb(92,96,103)" stroke-width="2.1"/><line x1="350" y1="330.2" x2="352.2" y2="369.4" stroke="rgb(92,96,103)" stroke-width="2.1"/><polygon points="328.3,402 330.6,400.2 352.7,400.2 350,402" fill="rgb(16,17,19)" stroke="rgb(16,17,19)" stroke-width="0.7"/><polygon points="330.6,257.2 328.3,257.8 350,258.4 352.7,257.8" fill="rgb(30,32,36)" stroke="rgb(30,32,36)" stroke-width="0.7"/><line x1="328.3" y1="329.9" x2="330.1" y2="288.6" stroke="rgb(92,96,103)" stroke-width="2.1"/><line x1="328.3" y1="329.9" x2="330.1" y2="369.2" stroke="rgb(92,96,103)" stroke-width="2.1"/><polygon points="321.4,260.7 309,204.5 358.6,206.3 376.1,262.1" fill="rgb(209,87,0)" stroke="rgb(209,87,0)" stroke-width="0.7"/><line x1="350" y1="330.2" x2="357.1" y2="327" stroke="rgb(92,96,103)" stroke-width="2.1"/><line x1="328.3" y1="329.9" x2="334.4" y2="326.7" stroke="rgb(92,96,103)" stroke-width="2.2"/><polygon points="330.6,400.2 332.8,394.6 355.3,394.7 352.7,400.2" fill="rgb(16,17,19)" stroke="rgb(16,17,19)" stroke-width="0.7"/><polygon points="332.8,260.4 330.6,257.2 352.7,257.8 355.3,261" fill="rgb(31,33,38)" stroke="rgb(31,33,38)" stroke-width="0.7"/><polygon points="315.9,184.6 320.3,219.5 374.5,221.3 368.4,186.7" fill="rgb(206,85,0)" stroke="rgb(206,85,0)" stroke-width="0.7"/><polygon points="332.8,394.6 334.9,385.5 357.7,385.6 355.3,394.7" fill="rgb(16,17,19)" stroke="rgb(16,17,19)" stroke-width="0.7"/><polygon points="334.9,267.3 332.8,260.4 355.3,261 357.7,267.9" fill="rgb(32,34,39)" stroke="rgb(32,34,39)" stroke-width="0.7"/><polygon points="334.9,385.5 336.7,373.2 359.8,373.3 357.7,385.6" fill="rgb(16,17,19)" stroke="rgb(16,17,19)" stroke-width="0.7"/><polygon points="336.7,277.7 334.9,267.3 357.7,267.9 359.8,278.3" fill="rgb(32,34,39)" stroke="rgb(32,34,39)" stroke-width="0.7"/><line x1="391" y1="313.5" x2="382.3" y2="300.7" stroke="rgb(73,77,85)" stroke-width="3.2"/><polygon points="336.7,373.2 338.1,358.3 361.3,358.4 359.8,373.3" fill="rgb(17,18,21)" stroke="rgb(17,18,21)" stroke-width="0.7"/><polygon points="338.1,291.2 336.7,277.7 359.8,278.3 361.3,291.7" fill="rgb(31,33,38)" stroke="rgb(31,33,38)" stroke-width="0.7"/><polygon points="339,307 338.1,291.2 361.3,291.7 362.3,307.4" fill="rgb(29,31,36)" stroke="rgb(29,31,36)" stroke-width="0.7"/><polygon points="338.1,358.3 339,341.6 362.3,341.8 361.3,358.4" fill="rgb(20,22,25)" stroke="rgb(20,22,25)" stroke-width="0.7"/><polygon points="339,341.6 339.3,324.1 362.7,324.5 362.3,341.8" fill="rgb(24,25,29)" stroke="rgb(24,25,29)" stroke-width="0.7"/><polygon points="339.3,324.1 339,307 362.3,307.4 362.7,324.5" fill="rgb(27,28,33)" stroke="rgb(27,28,33)" stroke-width="0.7"/><polygon points="320.3,219.5 331.3,176.3 390,178.7 374.5,221.3" fill="rgb(103,43,0)" stroke="rgb(103,43,0)" stroke-width="0.7"/><polygon points="388.3,323.4 319,322.4 319,256 388.3,257.9" fill="rgb(25,26,31)" stroke="rgb(25,26,31)" stroke-width="0.7"/><polygon points="358.6,206.3 368.4,186.7 374.5,221.3 390,178.7 407.2,164.3 414,202.8 399.7,249 376.1,262.1" fill="rgb(201,84,0)" stroke="rgb(201,84,0)" stroke-width="0.7"/><line x1="379" y1="210.5" x2="398" y2="256.7" stroke="rgb(201,84,0)" stroke-width="2.9"/><line x1="378.2" y1="262.2" x2="399" y2="190.1" stroke="rgb(201,84,0)" stroke-width="2.9"/><polygon points="309,204.5 315.9,184.6 320.3,219.5 331.3,176.3 343.6,161.5 348.5,200.4 338.3,247.3 321.4,260.7" fill="rgb(201,84,0)" stroke="rgb(201,84,0)" stroke-width="0.7"/><line x1="319.9" y1="208.4" x2="333.1" y2="255" stroke="rgb(201,84,0)" stroke-width="3"/><line x1="319.3" y1="260.6" x2="333.8" y2="187.5" stroke="rgb(201,84,0)" stroke-width="3"/><polygon points="338.3,247.3 321.4,260.7 376.1,262.1 399.7,249" fill="rgb(191,79,0)" stroke="rgb(191,79,0)" stroke-width="0.7"/><polygon points="408.9,315.2 388.3,323.4 388.3,257.9 408.9,242.9" fill="rgb(24,24,29)" stroke="rgb(24,24,29)" stroke-width="0.7"/><polygon points="319,256 332.5,240.6 408.9,242.9 388.3,257.9" fill="rgb(16,16,19)" stroke="rgb(16,16,19)" stroke-width="0.7"/><polygon points="388.3,323.4 408.9,315.2 332.5,314 319,322.4" fill="rgb(29,30,35)" stroke="rgb(29,30,35)" stroke-width="0.7"/><polygon points="319,322.4 332.5,314 332.5,240.6 319,256" fill="rgb(24,24,29)" stroke="rgb(24,24,29)" stroke-width="0.7"/><polygon points="331.3,176.3 343.6,161.5 407.2,164.3 390,178.7" fill="rgb(192,80,0)" stroke="rgb(192,80,0)" stroke-width="0.7"/><polygon points="332.5,314 408.9,315.2 408.9,242.9 332.5,240.6" fill="rgb(25,26,31)" stroke="rgb(25,26,31)" stroke-width="0.7"/><polygon points="360.2,294.1 359.8,314 383.8,314.3 384.3,294.6" fill="rgb(24,25,29)" stroke="rgb(24,25,29)" stroke-width="0.7"/><polygon points="359.8,314 360.2,333.4 384.3,333.7 383.8,314.3" fill="rgb(27,28,33)" stroke="rgb(27,28,33)" stroke-width="0.7"/><polygon points="361.4,274.6 360.2,294.1 384.3,294.6 385.6,275.2" fill="rgb(20,22,25)" stroke="rgb(20,22,25)" stroke-width="0.7"/><polygon points="360.2,333.4 361.4,351.7 385.6,351.9 384.3,333.7" fill="rgb(29,31,36)" stroke="rgb(29,31,36)" stroke-width="0.7"/><line x1="456.7" y1="132.8" x2="462.2" y2="157" stroke="rgb(16,16,19)" stroke-width="3.3"/><polygon points="361.4,351.7 363.2,368.2 387.7,368.3 385.6,351.9" fill="rgb(31,33,38)" stroke="rgb(31,33,38)" stroke-width="0.7"/><polygon points="363.2,256.2 361.4,274.6 385.6,275.2 387.7,256.8" fill="rgb(17,18,21)" stroke="rgb(17,18,21)" stroke-width="0.7"/><polygon points="348.5,200.4 338.3,247.3 399.7,249 414,202.8" fill="rgb(103,43,0)" stroke="rgb(103,43,0)" stroke-width="0.7"/><polygon points="363.2,368.2 365.8,382.1 390.6,382.2 387.7,368.3" fill="rgb(32,34,39)" stroke="rgb(32,34,39)" stroke-width="0.7"/><polygon points="365.8,239.6 363.2,256.2 387.7,256.8 390.6,240.3" fill="rgb(16,17,19)" stroke="rgb(16,17,19)" stroke-width="0.7"/><polygon points="343.6,161.5 348.5,200.4 414,202.8 407.2,164.3" fill="rgb(203,84,0)" stroke="rgb(203,84,0)" stroke-width="0.7"/><line x1="297.8" y1="124.8" x2="456.7" y2="132.8" stroke="rgb(25,26,31)" stroke-width="3.8"/><line x1="379.4" y1="173.2" x2="378.4" y2="128.9" stroke="rgb(24,24,29)" stroke-width="3.3"/><polygon points="365.8,382.1 369,392.8 394.2,392.9 390.6,382.2" fill="rgb(32,34,39)" stroke="rgb(32,34,39)" stroke-width="0.7"/><polygon points="369,225.6 365.8,239.6 390.6,240.3 394.2,226.4" fill="rgb(16,17,19)" stroke="rgb(16,17,19)" stroke-width="0.7"/><line x1="297.8" y1="124.8" x2="286.1" y2="148.9" stroke="rgb(28,29,34)" stroke-width="3.4"/><polygon points="369,392.8 372.6,399.6 398.3,399.6 394.2,392.9" fill="rgb(31,33,38)" stroke="rgb(31,33,38)" stroke-width="0.7"/><polygon points="372.6,215 369,225.6 394.2,226.4 398.3,215.8" fill="rgb(16,17,19)" stroke="rgb(16,17,19)" stroke-width="0.7"/><line x1="404.3" y1="174.2" x2="416" y2="303.2" stroke="rgb(76,80,88)" stroke-width="3.9"/><line x1="402.9" y1="305.7" x2="393.5" y2="278.6" stroke="rgb(92,96,103)" stroke-width="2.8"/><line x1="402.9" y1="305.7" x2="393.5" y2="341.3" stroke="rgb(92,96,103)" stroke-width="2.8"/><line x1="354.4" y1="172.1" x2="363.4" y2="302.3" stroke="rgb(76,80,88)" stroke-width="3.9"/><line x1="376.6" y1="305.2" x2="368.4" y2="341" stroke="rgb(92,96,103)" stroke-width="2.8"/><line x1="376.6" y1="305.2" x2="368.4" y2="278" stroke="rgb(92,96,103)" stroke-width="2.8"/><polygon points="372.6,399.6 376.6,402 402.9,402 398.3,399.6" fill="rgb(30,32,36)" stroke="rgb(30,32,36)" stroke-width="0.7"/><polygon points="376.6,208.4 372.6,215 398.3,215.8 402.9,209.3" fill="rgb(16,17,19)" stroke="rgb(16,17,19)" stroke-width="0.7"/><polygon points="416.8,299.4 416.4,285.4 415.3,272.6 413.6,261.7 411.4,253.3 408.7,247.7 405.9,245.3 402.9,245.9 400.1,249.5 397.4,255.7 395.1,264.2 393.2,274.5 391.8,286.2 391,298.6 390.7,311.2 391,323.6 391.8,335.3 393.2,345.6 395.1,354.2 397.4,360.6 400.1,364.4 402.9,365.4 405.9,363.4 408.7,358.3 411.4,350.4 413.6,339.9 415.3,327.5 416.4,313.7" fill="rgb(148,153,160)" stroke="rgb(148,153,160)" stroke-width="0.7"/><polygon points="408.1,303.3 407.9,298.1 407.6,293.3 406.9,289.1 406.1,285.9 405.1,283.6 404,282.5 402.9,282.5 401.8,283.7 400.8,286 399.8,289.3 399.1,293.3 398.5,297.9 398.1,302.8 398,307.9 398.1,312.9 398.5,317.5 399.1,321.6 399.8,324.9 400.8,327.3 401.8,328.6 402.9,328.8 404,327.8 405.1,325.7 406.1,322.6 406.9,318.5 407.6,313.8 407.9,308.6" fill="rgb(92,96,103)" stroke="rgb(92,96,103)" stroke-width="0.7"/><polygon points="426.2,295.1 425.6,271.6 423.7,250.3 420.7,232.5 416.9,219 412.4,210.6 407.7,207.5 402.9,209.3 398.3,215.8 394.2,226.4 390.6,240.3 387.7,256.8 385.6,275.2 384.3,294.6 383.8,314.3 384.3,333.7 385.6,351.9 387.7,368.3 390.6,382.2 394.2,392.9 398.3,399.6 402.9,402 407.7,399.5 412.4,392 416.9,379.6 420.7,362.7 423.7,342.1 425.6,319.1" fill="rgb(24,25,29)" stroke="rgb(24,25,29)" stroke-width="0.7"/><polygon points="397.2,294.5 396.6,270.9 394.9,249.5 392.3,231.6 388.9,218.1 385,209.7 380.8,206.5 376.6,208.4 372.6,215 369,225.6 365.8,239.6 363.2,256.2 361.4,274.6 360.2,294.1 359.8,314 360.2,333.4 361.4,351.7 363.2,368.2 365.8,382.1 369,392.8 372.6,399.6 376.6,402 380.8,399.5 385,392 388.9,379.5 392.3,362.5 394.9,341.8 396.6,318.6" fill="rgb(24,25,29)" stroke="rgb(24,25,29)" stroke-width="0.7"/><polygon points="388.8,298.8 388.5,284.8 387.6,271.9 386,261 384.1,252.5 381.7,247 379.2,244.5 376.6,245.2 374.1,248.8 371.8,255.1 369.8,263.6 368.1,273.9 366.9,285.6 366.1,298.1 365.9,310.8 366.1,323.3 366.9,335 368.1,345.3 369.8,354 371.8,360.4 374.1,364.2 376.6,365.2 379.2,363.2 381.7,358.1 384.1,350.1 386,339.6 387.6,327.1 388.5,313.2" fill="rgb(148,153,160)" stroke="rgb(148,153,160)" stroke-width="0.7"/><polygon points="381.2,302.8 381.1,297.6 380.7,292.8 380.2,288.6 379.4,285.3 378.6,283 377.6,281.9 376.6,282 375.7,283.2 374.7,285.5 373.9,288.7 373.2,292.7 372.7,297.4 372.4,302.3 372.3,307.5 372.4,312.4 372.7,317.1 373.2,321.2 373.9,324.5 374.7,326.9 375.7,328.2 376.6,328.4 377.6,327.4 378.6,325.3 379.4,322.2 380.2,318.1 380.7,313.4 381.1,308.2" fill="rgb(92,96,103)" stroke="rgb(92,96,103)" stroke-width="0.7"/><line x1="402.9" y1="305.7" x2="406.7" y2="249.8" stroke="rgb(92,96,103)" stroke-width="2.8"/><line x1="402.9" y1="305.7" x2="406.7" y2="358" stroke="rgb(92,96,103)" stroke-width="2.8"/><polygon points="376.6,402 380.8,399.5 407.7,399.5 402.9,402" fill="rgb(16,17,19)" stroke="rgb(16,17,19)" stroke-width="0.7"/><polygon points="380.8,206.5 376.6,208.4 402.9,209.3 407.7,207.5" fill="rgb(30,32,36)" stroke="rgb(30,32,36)" stroke-width="0.7"/><line x1="376.6" y1="305.2" x2="380" y2="249.1" stroke="rgb(92,96,103)" stroke-width="2.9"/><line x1="376.6" y1="305.2" x2="380" y2="357.8" stroke="rgb(92,96,103)" stroke-width="2.9"/><line x1="402.9" y1="305.7" x2="415.8" y2="299.8" stroke="rgb(92,96,103)" stroke-width="2.9"/><line x1="376.6" y1="305.2" x2="388" y2="299.3" stroke="rgb(92,96,103)" stroke-width="2.9"/><polygon points="385,209.7 380.8,206.5 407.7,207.5 412.4,210.6" fill="rgb(31,33,38)" stroke="rgb(31,33,38)" stroke-width="0.7"/><polygon points="380.8,399.5 385,392 412.4,392 407.7,399.5" fill="rgb(16,17,19)" stroke="rgb(16,17,19)" stroke-width="0.7"/><polygon points="385,392 388.9,379.5 416.9,379.6 412.4,392" fill="rgb(16,17,19)" stroke="rgb(16,17,19)" stroke-width="0.7"/><polygon points="388.9,218.1 385,209.7 412.4,210.6 416.9,219" fill="rgb(32,34,39)" stroke="rgb(32,34,39)" stroke-width="0.7"/><polygon points="392.3,231.6 388.9,218.1 416.9,219 420.7,232.5" fill="rgb(32,34,39)" stroke="rgb(32,34,39)" stroke-width="0.7"/><polygon points="388.9,379.5 392.3,362.5 420.7,362.7 416.9,379.6" fill="rgb(16,17,19)" stroke="rgb(16,17,19)" stroke-width="0.7"/><polygon points="394.9,249.5 392.3,231.6 420.7,232.5 423.7,250.3" fill="rgb(31,33,38)" stroke="rgb(31,33,38)" stroke-width="0.7"/><polygon points="392.3,362.5 394.9,341.8 423.7,342.1 420.7,362.7" fill="rgb(17,18,21)" stroke="rgb(17,18,21)" stroke-width="0.7"/><polygon points="394.9,341.8 396.6,318.6 425.6,319.1 423.7,342.1" fill="rgb(20,22,25)" stroke="rgb(20,22,25)" stroke-width="0.7"/><polygon points="396.6,270.9 394.9,249.5 423.7,250.3 425.6,271.6" fill="rgb(29,31,36)" stroke="rgb(29,31,36)" stroke-width="0.7"/><polygon points="397.2,294.5 396.6,270.9 425.6,271.6 426.2,295.1" fill="rgb(27,28,33)" stroke="rgb(27,28,33)" stroke-width="0.7"/><polygon points="396.6,318.6 397.2,294.5 426.2,295.1 425.6,319.1" fill="rgb(24,25,29)" stroke="rgb(24,25,29)" stroke-width="0.7"/></g></svg>