<svg xmlns="http://www.w3.org/2000/svg" width="720" height="520" viewBox="0 0 720 520"><ellipse cx="360" cy="410" rx="270" ry="34" fill="#05070c" opacity="0.28"/><g stroke-linecap="round" stroke-linejoin="round"><polygon points="457.8,348.4 458.6,341 461.1,334 465,327.7 470.3,322.4 476.6,318.5 483.6,316 491,315.2 498.4,316 505.4,318.5 511.7,322.4 517,327.7 520.9,334 523.4,341 524.2,348.4 523.4,355.8 520.9,362.8 517,369.1 511.7,374.4 505.4,378.3 498.4,380.8 491,381.6 483.6,380.8 476.6,378.3 470.3,374.4 465,369.1 461.1,362.8 458.6,355.8" fill="rgb(165,171,179)" stroke="rgb(165,171,179)" stroke-width="0.7"/><polygon points="478.1,348.4 478.4,345.6 479.4,342.8 480.9,340.4 483,338.4 485.4,336.8 488.1,335.9 491,335.6 493.8,335.9 496.6,336.8 499,338.4 501,340.4 502.6,342.8 503.5,345.6 503.8,348.4 503.5,351.3 502.6,354 501,356.4 499,358.5 496.6,360 493.8,361 491,361.3 488.1,361 485.4,360 483,358.5 480.9,356.4 479.4,354 478.4,351.3" fill="rgb(102,107,115)" stroke="rgb(102,107,115)" stroke-width="0.7"/><line x1="491" y1="348.4" x2="459.9" y2="348.4" stroke="rgb(102,107,115)" stroke-width="2.1"/><line x1="491" y1="348.4" x2="481.4" y2="318.9" stroke="rgb(102,107,115)" stroke-width="2.1"/><line x1="491" y1="348.4" x2="516.1" y2="330.1" stroke="rgb(102,107,115)" stroke-width="2.1"/><line x1="491" y1="348.4" x2="516.1" y2="366.7" stroke="rgb(102,107,115)" stroke-width="2.1"/><line x1="491" y1="348.4" x2="481.4" y2="378" stroke="rgb(102,107,115)" stroke-width="2.1"/><polygon points="175.4,348.4 176.8,336.5 180.7,325.2 187.1,315 195.6,306.5 205.8,300.1 217.1,296.2 229,294.8 240.9,296.2 252.3,300.1 262.4,306.5 270.9,315 277.3,325.2 281.3,336.5 282.6,348.4 281.3,360.3 277.3,371.7 270.9,381.8 262.4,390.3 252.3,396.7 240.9,400.7 229,402 217.1,400.7 205.8,396.7 195.6,390.3 187.1,381.8 180.7,371.7 176.8,360.3" fill="rgb(26,28,33)" stroke="rgb(26,28,33)" stroke-width="0.7"/><polygon points="437.4,348.4 438.7,336.5 442.7,325.2 449.1,315 457.6,306.5 467.7,300.1 479.1,296.2 491,294.8 502.9,296.2 514.2,300.1 524.4,306.5 532.9,315 539.3,325.2 543.2,336.5 544.6,348.4 543.2,360.3 539.3,371.7 532.9,381.8 524.4,390.3 514.2,396.7 502.9,400.7 491,402 479.1,400.7 467.7,396.7 457.6,390.3 449.1,381.8 442.7,371.7 438.7,360.3" fill="rgb(26,28,33)" stroke="rgb(26,28,33)" stroke-width="0.7"/><polygon points="195.8,348.4 196.6,341 199.1,334 203,327.7 208.3,322.4 214.6,318.5 221.6,316 229,315.2 236.4,316 243.4,318.5 249.7,322.4 255,327.7 258.9,334 261.4,341 262.2,348.4 261.4,355.8 258.9,362.8 255,369.1 249.7,374.4 243.4,378.3 236.4,380.8 229,381.6 221.6,380.8 214.6,378.3 208.3,374.4 203,369.1 199.1,362.8 196.6,355.8" fill="rgb(165,171,179)" stroke="rgb(165,171,179)" stroke-width="0.7"/><polygon points="216.2,348.4 216.5,345.6 217.4,342.8 219,340.4 221,338.4 223.4,336.8 226.2,335.9 229,335.6 231.9,335.9 234.6,336.8 237,338.4 239.1,340.4 240.6,342.8 241.6,345.6 241.9,348.4 241.6,351.3 240.6,354 239.1,356.4 237,358.5 234.6,360 231.9,361 229,361.3 226.2,361 223.4,360 221,358.5 219,356.4 217.4,354 216.5,351.3" fill="rgb(102,107,115)" stroke="rgb(102,107,115)" stroke-width="0.7"/><line x1="229" y1="348.4" x2="197.9" y2="348.4" stroke="rgb(102,107,115)" stroke-width="2.1"/><line x1="229" y1="348.4" x2="219.4" y2="318.9" stroke="rgb(102,107,115)" stroke-width="2.1"/><line x1="229" y1="348.4" x2="254.2" y2="330.1" stroke="rgb(102,107,115)" stroke-width="2.1"/><line x1="229" y1="348.4" x2="254.2" y2="366.7" stroke="rgb(102,107,115)" stroke-width="2.1"/><line x1="229" y1="348.4" x2="219.4" y2="378" stroke="rgb(102,107,115)" stroke-width="2.1"/><polygon points="502.9,296.2 514.2,300.1 518.5,297.3 506.9,293.2" fill="rgb(26,27,32)" stroke="rgb(26,27,32)" stroke-width="0.7"/><polygon points="514.2,300.1 524.4,306.5 529,303.9 518.5,297.3" fill="rgb(23,25,29)" stroke="rgb(23,25,29)" stroke-width="0.7"/><polygon points="524.4,306.5 532.9,315 537.7,312.6 529,303.9" fill="rgb(20,22,25)" stroke="rgb(20,22,25)" stroke-width="0.7"/><polygon points="532.9,315 539.3,325.2 544.2,323 537.7,312.6" fill="rgb(17,18,21)" stroke="rgb(17,18,21)" stroke-width="0.7"/><polygon points="539.3,325.2 543.2,336.5 548.3,334.7 544.2,323" fill="rgb(16,17,19)" stroke="rgb(16,17,19)" stroke-width="0.7"/><polygon points="543.2,336.5 544.6,348.4 549.7,346.9 548.3,334.7" fill="rgb(16,17,19)" stroke="rgb(16,17,19)" stroke-width="0.7"/><polygon points="544.6,348.4 543.2,360.3 548.3,359.2 549.7,346.9" fill="rgb(16,17,19)" stroke="rgb(16,17,19)" stroke-width="0.7"/><polygon points="543.2,360.3 539.3,371.7 544.2,370.8 548.3,359.2" fill="rgb(16,17,19)" stroke="rgb(16,17,19)" stroke-width="0.7"/><polygon points="539.3,371.7 532.9,381.8 537.7,381.3 544.2,370.8" fill="rgb(16,17,19)" stroke="rgb(16,17,19)" stroke-width="0.7"/><polygon points="532.9,381.8 524.4,390.3 529,390 537.7,381.3" fill="rgb(16,17,19)" stroke="rgb(16,17,19)" stroke-width="0.7"/><polygon points="524.4,390.3 514.2,396.7 518.5,396.5 529,390" fill="rgb(16,17,19)" stroke="rgb(16,17,19)" stroke-width="0.7"/><polygon points="514.2,396.7 502.9,400.7 506.9,400.6 518.5,396.5" fill="rgb(16,17,19)" stroke="rgb(16,17,19)" stroke-width="0.7"/><polygon points="502.9,400.7 491,402 494.6,402 506.9,400.6" fill="rgb(16,17,19)" stroke="rgb(16,17,19)" stroke-width="0.7"/><polygon points="262.4,306.5 270.9,315 268.4,312.6 259.7,303.9" fill="rgb(20,22,25)" stroke="rgb(20,22,25)" stroke-width="0.7"/><polygon points="270.9,315 277.3,325.2 275,323 268.4,312.6" fill="rgb(17,18,21)" stroke="rgb(17,18,21)" stroke-width="0.7"/><polygon points="277.3,325.2 281.3,336.5 279.1,334.7 275,323" fill="rgb(16,17,19)" stroke="rgb(16,17,19)" stroke-width="0.7"/><polygon points="281.3,336.5 282.6,348.4 280.5,346.9 279.1,334.7" fill="rgb(16,17,19)" stroke="rgb(16,17,19)" stroke-width="0.7"/><polygon points="282.6,348.4 281.3,360.3 279.1,359.2 280.5,346.9" fill="rgb(16,17,19)" stroke="rgb(16,17,19)" stroke-width="0.7"/><polygon points="281.3,360.3 277.3,371.7 275,370.8 279.1,359.2" fill="rgb(16,17,19)" stroke="rgb(16,17,19)" stroke-width="0.7"/><polygon points="277.3,371.7 270.9,381.8 268.4,381.3 275,370.8" fill="rgb(16,17,19)" stroke="rgb(16,17,19)" stroke-width="0.7"/><polygon points="270.9,381.8 262.4,390.3 259.7,390 268.4,381.3" fill="rgb(16,17,19)" stroke="rgb(16,17,19)" stroke-width="0.7"/><polygon points="437.4,348.4 438.7,336.5 440.9,334.7 439.5,346.9" fill="rgb(23,25,29)" stroke="rgb(23,25,29)" stroke-width="0.7"/><polygon points="438.7,336.5 442.7,325.2 445,323 440.9,334.7" fill="rgb(26,28,32)" stroke="rgb(26,28,32)" stroke-width="0.7"/><polygon points="442.7,325.2 449.1,315 451.6,312.6 445,323" fill="rgb(28,30,34)" stroke="rgb(28,30,34)" stroke-width="0.7"/><polygon points="449.1,315 457.6,306.5 460.3,303.9 451.6,312.6" fill="rgb(29,31,36)" stroke="rgb(29,31,36)" stroke-width="0.7"/><polygon points="457.6,306.5 467.7,300.1 470.7,297.3 460.3,303.9" fill="rgb(30,32,37)" stroke="rgb(30,32,37)" stroke-width="0.7"/><polygon points="467.7,300.1 479.1,296.2 482.4,293.2 470.7,297.3" fill="rgb(30,32,37)" stroke="rgb(30,32,37)" stroke-width="0.7"/><polygon points="479.1,296.2 491,294.8 494.6,291.9 482.4,293.2" fill="rgb(29,31,36)" stroke="rgb(29,31,36)" stroke-width="0.7"/><polygon points="491,294.8 502.9,296.2 506.9,293.2 494.6,291.9" fill="rgb(28,30,34)" stroke="rgb(28,30,34)" stroke-width="0.7"/><polygon points="491,402 479.1,400.7 482.4,400.6 494.6,402" fill="rgb(16,17,19)" stroke="rgb(16,17,19)" stroke-width="0.7"/><polygon points="479.1,400.7 467.7,396.7 470.7,396.5 482.4,400.6" fill="rgb(16,17,19)" stroke="rgb(16,17,19)" stroke-width="0.7"/><polygon points="467.7,396.7 457.6,390.3 460.3,390 470.7,396.5" fill="rgb(16,17,19)" stroke="rgb(16,17,19)" stroke-width="0.7"/><polygon points="457.6,390.3 449.1,381.8 451.6,381.3 460.3,390" fill="rgb(16,17,19)" stroke="rgb(16,17,19)" stroke-width="0.7"/><polygon points="449.1,381.8 442.7,371.7 445,370.8 451.6,381.3" fill="rgb(16,17,19)" stroke="rgb(16,17,19)" stroke-width="0.7"/><polygon points="442.7,371.7 438.7,360.3 440.9,359.2 445,370.8" fill="rgb(17,18,21)" stroke="rgb(17,18,21)" stroke-width="0.7"/><polygon points="438.7,360.3 437.4,348.4 439.5,346.9 440.9,359.2" fill="rgb(20,22,25)" stroke="rgb(20,22,25)" stroke-width="0.7"/><polygon points="175.4,348.4 176.8,336.5 171.7,334.7 170.3,346.9" fill="rgb(23,25,29)" stroke="rgb(23,25,29)" stroke-width="0.7"/><polygon points="176.8,336.5 180.7,325.2 175.8,323 171.7,334.7" fill="rgb(26,28,32)" stroke="rgb(26,28,32)" stroke-width="0.7"/><polygon points="180.7,325.2 187.1,315 182.3,312.6 175.8,323" fill="rgb(28,30,34)" stroke="rgb(28,30,34)" stroke-width="0.7"/><polygon points="187.1,315 195.6,306.5 191,303.9 182.3,312.6" fill="rgb(29,31,36)" stroke="rgb(29,31,36)" stroke-width="0.7"/><polygon points="195.6,306.5 205.8,300.1 201.5,297.3 191,303.9" fill="rgb(30,32,37)" stroke="rgb(30,32,37)" stroke-width="0.7"/><polygon points="205.8,300.1 217.1,296.2 213.1,293.2 201.5,297.3" fill="rgb(30,32,37)" stroke="rgb(30,32,37)" stroke-width="0.7"/><polygon points="217.1,296.2 229,294.8 225.4,291.9 213.1,293.2" fill="rgb(29,31,36)" stroke="rgb(29,31,36)" stroke-width="0.7"/><polygon points="229,294.8 240.9,296.2 237.6,293.2 225.4,291.9" fill="rgb(28,30,34)" stroke="rgb(28,30,34)" stroke-width="0.7"/><polygon points="240.9,296.2 252.3,300.1 249.3,297.3 237.6,293.2" fill="rgb(26,27,32)" stroke="rgb(26,27,32)" stroke-width="0.7"/><polygon points="252.3,300.1 262.4,306.5 259.7,303.9 249.3,297.3" fill="rgb(23,25,29)" stroke="rgb(23,25,29)" stroke-width="0.7"/><polygon points="262.4,390.3 252.3,396.7 249.3,396.5 259.7,390" fill="rgb(16,17,19)" stroke="rgb(16,17,19)" stroke-width="0.7"/><polygon points="252.3,396.7 240.9,400.7 237.6,400.6 249.3,396.5" fill="rgb(16,17,19)" stroke="rgb(16,17,19)" stroke-width="0.7"/><polygon points="240.9,400.7 229,402 225.4,402 237.6,400.6" fill="rgb(16,17,19)" stroke="rgb(16,17,19)" stroke-width="0.7"/><polygon points="229,402 217.1,400.7 213.1,400.6 225.4,402" fill="rgb(16,17,19)" stroke="rgb(16,17,19)" stroke-width="0.7"/><polygon points="217.1,400.7 205.8,396.7 201.5,396.5 213.1,400.6" fill="rgb(16,17,19)" stroke="rgb(16,17,19)" stroke-width="0.7"/><polygon points="205.8,396.7 195.6,390.3 191,390 201.5,396.5" fill="rgb(16,17,19)" stroke="rgb(16,17,19)" stroke-width="0.7"/><polygon points="195.6,390.3 187.1,381.8 182.3,381.3 191,390" fill="rgb(16,17,19)" stroke="rgb(16,17,19)" stroke-width="0.7"/><polygon points="187.1,381.8 180.7,371.7 175.8,370.8 182.3,381.3" fill="rgb(16,17,19)" stroke="rgb(16,17,19)" stroke-width="0.7"/><polygon points="180.7,371.7 176.8,360.3 171.7,359.2 175.8,370.8" fill="rgb(17,18,21)" stroke="rgb(17,18,21)" stroke-width="0.7"/><polygon points="176.8,360.3 175.4,348.4 170.3,346.9 171.7,359.2" fill="rgb(20,22,25)" stroke="rgb(20,22,25)" stroke-width="0.7"/><polygon points="558.8,349.3 161.2,349.3 161.2,239.7 558.8,239.7" fill="rgb(39,99,174)" stroke="rgb(39,99,174)" stroke-width="0.7"/><polygon points="439.5,346.9 440.9,334.7 445,323 451.6,312.6 460.3,303.9 470.7,297.3 482.4,293.2 494.6,291.9 506.9,293.2 518.5,297.3 529,303.9 537.7,312.6 544.2,323 548.3,334.7 549.7,346.9 548.3,359.2 544.2,370.8 537.7,381.3 529,390 518.5,396.5 506.9,400.6 494.6,402 482.4,400.6 470.7,396.5 460.3,390 451.6,381.3 445,370.8 440.9,359.2" fill="rgb(26,28,33)" stroke="rgb(26,28,33)" stroke-width="0.7"/><polygon points="460.5,346.9 461.3,339.3 463.9,332.1 467.9,325.6 473.3,320.2 479.8,316.2 487,313.6 494.6,312.8 502.2,313.6 509.4,316.2 515.9,320.2 521.3,325.6 525.4,332.1 527.9,339.3 528.8,346.9 527.9,354.5 525.4,361.7 521.3,368.2 515.9,373.6 509.4,377.7 502.2,380.2 494.6,381.1 487,380.2 479.8,377.7 473.3,373.6 467.9,368.2 463.9,361.7 461.3,354.5" fill="rgb(165,171,179)" stroke="rgb(165,171,179)" stroke-width="0.7"/><polygon points="481.4,346.9 481.7,344 482.7,341.2 484.3,338.7 486.4,336.6 488.9,335 491.7,334 494.6,333.7 497.6,334 500.3,335 502.9,336.6 504.9,338.7 506.5,341.2 507.5,344 507.8,346.9 507.5,349.9 506.5,352.7 504.9,355.2 502.9,357.3 500.3,358.8 497.6,359.8 494.6,360.1 491.7,359.8 488.9,358.8 486.4,357.3 484.3,355.2 482.7,352.7 481.7,349.9" fill="rgb(102,107,115)" stroke="rgb(102,107,115)" stroke-width="0.7"/><line x1="494.6" y1="346.9" x2="462.7" y2="346.9" stroke="rgb(102,107,115)" stroke-width="2.1"/><line x1="494.6" y1="346.9" x2="484.7" y2="316.6" stroke="rgb(102,107,115)" stroke-width="2.1"/><line x1="494.6" y1="346.9" x2="520.5" y2="328.2" stroke="rgb(102,107,115)" stroke-width="2.1"/><line x1="494.6" y1="346.9" x2="520.5" y2="365.7" stroke="rgb(102,107,115)" stroke-width="2.1"/><line x1="494.6" y1="346.9" x2="484.7" y2="377.3" stroke="rgb(102,107,115)" stroke-width="2.1"/><line x1="225.4" y1="346.9" x2="193.4" y2="346.9" stroke="rgb(102,107,115)" stroke-width="2.1"/><line x1="225.4" y1="346.9" x2="215.5" y2="316.6" stroke="rgb(102,107,115)" stroke-width="2.1"/><line x1="225.4" y1="346.9" x2="251.2" y2="328.2" stroke="rgb(102,107,115)" stroke-width="2.1"/><line x1="225.4" y1="346.9" x2="251.2" y2="365.7" stroke="rgb(102,107,115)" stroke-width="2.1"/><line x1="225.4" y1="346.9" x2="215.5" y2="377.3" stroke="rgb(102,107,115)" stroke-width="2.1"/><polygon points="170.3,346.9 171.7,334.7 175.8,323 182.3,312.6 191,303.9 201.5,297.3 213.1,293.2 225.4,291.9 237.6,293.2 249.3,297.3 259.7,303.9 268.4,312.6 275,323 279.1,334.7 280.5,346.9 279.1,359.2 275,370.8 268.4,381.3 259.7,390 249.3,396.5 237.6,400.6 225.4,402 213.1,400.6 201.5,396.5 191,390 182.3,381.3 175.8,370.8 171.7,359.2" fill="rgb(26,28,33)" stroke="rgb(26,28,33)" stroke-width="0.7"/><polygon points="191.2,346.9 192.1,339.3 194.6,332.1 198.7,325.6 204.1,320.2 210.6,316.2 217.8,313.6 225.4,312.8 233,313.6 240.2,316.2 246.7,320.2 252.1,325.6 256.1,332.1 258.7,339.3 259.5,346.9 258.7,354.5 256.1,361.7 252.1,368.2 246.7,373.6 240.2,377.7 233,380.2 225.4,381.1 217.8,380.2 210.6,377.7 204.1,373.6 198.7,368.2 194.6,361.7 192.1,354.5" fill="rgb(165,171,179)" stroke="rgb(165,171,179)" stroke-width="0.7"/><polygon points="212.2,346.9 212.5,344 213.5,341.2 215.1,338.7 217.1,336.6 219.7,335 222.4,334 225.4,333.7 228.3,334 231.1,335 233.6,336.6 235.7,338.7 237.3,341.2 238.3,344 238.6,346.9 238.3,349.9 237.3,352.7 235.7,355.2 233.6,357.3 231.1,358.8 228.3,359.8 225.4,360.1 222.4,359.8 219.7,358.8 217.1,357.3 215.1,355.2 213.5,352.7 212.5,349.9" fill="rgb(102,107,115)" stroke="rgb(102,107,115)" stroke-width="0.7"/><polygon points="515.2,218.2 237.5,218.2 237.5,148.8 515.2,148.8" fill="rgb(132,172,197)" stroke="rgb(132,172,197)" stroke-width="0.7"/><polygon points="515.8,217.5 515.2,218.2 515.2,148.8 515.8,147.7" fill="rgb(109,143,163)" stroke="rgb(109,143,163)" stroke-width="0.7"/><polygon points="519.6,238.3 233.1,238.3 233.1,131.9 519.6,131.9" fill="rgb(30,81,148)" stroke="rgb(30,81,148)" stroke-width="0.7"/><polygon points="515.2,148.8 237.5,148.8 237,147.7 515.8,147.7" fill="rgb(78,102,116)" stroke="rgb(78,102,116)" stroke-width="0.7"/><polygon points="515.8,217.5 237,217.5 237.5,218.2 515.2,218.2" fill="rgb(143,187,213)" stroke="rgb(143,187,213)" stroke-width="0.7"/><polygon points="237.5,218.2 237,217.5 237,147.7 237.5,148.8" fill="rgb(78,102,116)" stroke="rgb(78,102,116)" stroke-width="0.7"/><polygon points="237,217.5 515.8,217.5 515.8,147.7 237,147.7" fill="rgb(132,172,197)" stroke="rgb(132,172,197)" stroke-width="0.7"/><polygon points="232.6,233.5 158.6,233.5 158.6,217.1 232.6,134.9" fill="rgb(132,172,197)" stroke="rgb(132,172,197)" stroke-width="0.7"/><polygon points="615,334.3 558.8,349.3 558.8,239.7 615,193.8" fill="rgb(32,82,145)" stroke="rgb(32,82,145)" stroke-width="0.7"/><polygon points="560.8,196.1 519.6,238.3 519.6,131.9 560.8,62.2" fill="rgb(25,67,123)" stroke="rgb(25,67,123)" stroke-width="0.7"/><polygon points="519.6,131.9 233.1,131.9 200.4,62.2 560.8,62.2" fill="rgb(32,88,160)" stroke="rgb(32,88,160)" stroke-width="0.7"/><polygon points="560.8,196.1 200.4,196.1 233.1,238.3 519.6,238.3" fill="rgb(18,48,87)" stroke="rgb(18,48,87)" stroke-width="0.7"/><polygon points="558.8,239.7 161.2,239.7 105,193.8 615,193.8" fill="rgb(23,58,103)" stroke="rgb(23,58,103)" stroke-width="0.7"/><polygon points="615,334.3 105,334.3 161.2,349.3 558.8,349.3" fill="rgb(23,58,103)" stroke="rgb(23,58,103)" stroke-width="0.7"/><polygon points="233.1,238.3 200.4,196.1 200.4,62.2 233.1,131.9" fill="rgb(25,67,123)" stroke="rgb(25,67,123)" stroke-width="0.7"/><polygon points="232.6,134.9 232.6,233.5 201.3,192 201.3,69.1" fill="rgb(109,143,163)" stroke="rgb(109,143,163)" stroke-width="0.7"/><polygon points="232.6,233.5 158.6,233.5 109.1,192 201.3,192" fill="rgb(143,187,213)" stroke="rgb(143,187,213)" stroke-width="0.7"/><polygon points="158.6,217.1 232.6,134.9 201.3,69.1 109.1,171.6" fill="rgb(145,189,216)" stroke="rgb(145,189,216)" stroke-width="0.7"/><polygon points="161.2,349.3 105,334.3 105,193.8 161.2,239.7" fill="rgb(32,82,145)" stroke="rgb(32,82,145)" stroke-width="0.7"/><polygon points="158.6,233.5 158.6,217.1 109.1,171.6 109.1,192" fill="rgb(109,143,163)" stroke="rgb(109,143,163)" stroke-width="0.7"/><polygon points="201.3,192 109.1,192 109.1,171.6 201.3,69.1" fill="rgb(132,172,197)" stroke="rgb(132,172,197)" stroke-width="0.7"/><polygon points="555.1,170.9 206,170.9 206,83.7 555.1,83.7" fill="rgb(132,172,197)" stroke="rgb(132,172,197)" stroke-width="0.7"/><polygon points="556.2,169.7 555.1,170.9 555.1,83.7 556.2,81.9" fill="rgb(109,143,163)" stroke="rgb(109,143,163)" stroke-width="0.7"/><polygon points="200.4,196.1 560.8,196.1 560.8,62.2 200.4,62.2" fill="rgb(30,81,148)" stroke="rgb(30,81,148)" stroke-width="0.7"/><polygon points="555.1,83.7 206,83.7 205.1,81.9 556.2,81.9" fill="rgb(78,102,116)" stroke="rgb(78,102,116)" stroke-width="0.7"/><polygon points="556.2,169.7 205.1,169.7 206,170.9 555.1,170.9" fill="rgb(143,187,213)" stroke="rgb(143,187,213)" stroke-width="0.7"/><polygon points="206,170.9 205.1,169.7 205.1,81.9 206,83.7" fill="rgb(78,102,116)" stroke="rgb(78,102,116)" stroke-width="0.7"/><polygon points="205.1,169.7 556.2,169.7 556.2,81.9 205.1,81.9" fill="rgb(132,172,197)" stroke="rgb(132,172,197)" stroke-width="0.7"/><polygon points="460.8,332.2 462.5,316.7 467.7,301.9 476,288.7 487.1,277.7 500.3,269.3 515.1,264.2 530.6,262.4 546.1,264.2 560.9,269.3 574.1,277.7 585.1,288.7 593.5,301.9 598.6,316.7 600.4,332.2 598.6,347.7 593.5,362.5 585.1,375.7 574.1,386.8 560.9,395.1 546.1,400.3 530.6,402 515.1,400.3 500.3,395.1 487.1,386.8 476,375.7 467.7,362.5 462.5,347.7" fill="rgb(26,28,33)" stroke="rgb(26,28,33)" stroke-width="0.7"/><polygon points="487.3,332.2 488.4,322.6 491.6,313.4 496.8,305.2 503.6,298.4 511.8,293.2 521,290 530.6,288.9 540.2,290 549.4,293.2 557.6,298.4 564.4,305.2 569.6,313.4 572.8,322.6 573.9,332.2 572.8,341.8 569.6,351 564.4,359.2 557.6,366 549.4,371.2 540.2,374.4 530.6,375.5 521,374.4 511.8,371.2 503.6,366 496.8,359.2 491.6,351 488.4,341.8" fill="rgb(165,171,179)" stroke="rgb(165,171,179)" stroke-width="0.7"/><polygon points="513.8,332.2 514.3,328.5 515.5,324.9 517.5,321.8 520.1,319.1 523.3,317.1 526.9,315.9 530.6,315.5 534.3,315.9 537.9,317.1 541,319.1 543.7,321.8 545.7,324.9 546.9,328.5 547.3,332.2 546.9,335.9 545.7,339.5 543.7,342.7 541,345.3 537.9,347.3 534.3,348.5 530.6,349 526.9,348.5 523.3,347.3 520.1,345.3 517.5,342.7 515.5,339.5 514.3,335.9" fill="rgb(102,107,115)" stroke="rgb(102,107,115)" stroke-width="0.7"/><line x1="530.6" y1="332.2" x2="490.1" y2="332.2" stroke="rgb(102,107,115)" stroke-width="2.7"/><line x1="530.6" y1="332.2" x2="518.1" y2="293.7" stroke="rgb(102,107,115)" stroke-width="2.7"/><line x1="530.6" y1="332.2" x2="563.3" y2="308.4" stroke="rgb(102,107,115)" stroke-width="2.7"/><line x1="530.6" y1="332.2" x2="563.3" y2="356" stroke="rgb(102,107,115)" stroke-width="2.7"/><line x1="530.6" y1="332.2" x2="518.1" y2="370.7" stroke="rgb(102,107,115)" stroke-width="2.7"/><line x1="189.4" y1="332.2" x2="148.9" y2="332.2" stroke="rgb(102,107,115)" stroke-width="2.7"/><line x1="189.4" y1="332.2" x2="176.9" y2="293.7" stroke="rgb(102,107,115)" stroke-width="2.7"/><line x1="189.4" y1="332.2" x2="222.2" y2="308.4" stroke="rgb(102,107,115)" stroke-width="2.7"/><line x1="189.4" y1="332.2" x2="222.2" y2="356" stroke="rgb(102,107,115)" stroke-width="2.7"/><line x1="189.4" y1="332.2" x2="176.9" y2="370.7" stroke="rgb(102,107,115)" stroke-width="2.7"/><polygon points="119.6,332.2 121.4,316.7 126.5,301.9 134.9,288.7 145.9,277.7 159.1,269.3 173.9,264.2 189.4,262.4 204.9,264.2 219.7,269.3 232.9,277.7 244,288.7 252.3,301.9 257.5,316.7 259.2,332.2 257.5,347.7 252.3,362.5 244,375.7 232.9,386.8 219.7,395.1 204.9,400.3 189.4,402 173.9,400.3 159.1,395.1 145.9,386.8 134.9,375.7 126.5,362.5 121.4,347.7" fill="rgb(26,28,33)" stroke="rgb(26,28,33)" stroke-width="0.7"/><polygon points="146.1,332.2 147.2,322.6 150.4,313.4 155.6,305.2 162.4,298.4 170.6,293.2 179.8,290 189.4,288.9 199,290 208.2,293.2 216.4,298.4 223.2,305.2 228.4,313.4 231.6,322.6 232.7,332.2 231.6,341.8 228.4,351 223.2,359.2 216.4,366 208.2,371.2 199,374.4 189.4,375.5 179.8,374.4 170.6,371.2 162.4,366 155.6,359.2 150.4,351 147.2,341.8" fill="rgb(165,171,179)" stroke="rgb(165,171,179)" stroke-width="0.7"/><polygon points="172.7,332.2 173.1,328.5 174.3,324.9 176.3,321.8 179,319.1 182.1,317.1 185.7,315.9 189.4,315.5 193.1,315.9 196.7,317.1 199.9,319.1 202.5,321.8 204.5,324.9 205.7,328.5 206.2,332.2 205.7,335.9 204.5,339.5 202.5,342.7 199.9,345.3 196.7,347.3 193.1,348.5 189.4,349 185.7,348.5 182.1,347.3 179,345.3 176.3,342.7 174.3,339.5 173.1,335.9" fill="rgb(102,107,115)" stroke="rgb(102,107,115)" stroke-width="0.7"/><polygon points="105,334.3 615,334.3 615,193.8 105,193.8" fill="rgb(39,99,174)" stroke="rgb(39,99,174)" stroke-width="0.7"/><polygon points="476,288.7 487.1,277.7 491.7,273.1 480.2,284.6" fill="rgb(29,31,36)" stroke="rgb(29,31,36)" stroke-width="0.7"/><polygon points="487.1,277.7 500.3,269.3 505.4,264.5 491.7,273.1" fill="rgb(30,32,37)" stroke="rgb(30,32,37)" stroke-width="0.7"/><polygon points="500.3,269.3 515.1,264.2 520.7,259.2 505.4,264.5" fill="rgb(30,32,37)" stroke="rgb(30,32,37)" stroke-width="0.7"/><polygon points="515.1,264.2 530.6,262.4 536.8,257.4 520.7,259.2" fill="rgb(29,31,36)" stroke="rgb(29,31,36)" stroke-width="0.7"/><polygon points="530.6,262.4 546.1,264.2 552.9,259.2 536.8,257.4" fill="rgb(28,30,34)" stroke="rgb(28,30,34)" stroke-width="0.7"/><polygon points="546.1,264.2 560.9,269.3 568.2,264.5 552.9,259.2" fill="rgb(26,27,32)" stroke="rgb(26,27,32)" stroke-width="0.7"/><polygon points="560.9,269.3 574.1,277.7 581.9,273.1 568.2,264.5" fill="rgb(23,25,29)" stroke="rgb(23,25,29)" stroke-width="0.7"/><polygon points="574.1,277.7 585.1,288.7 593.3,284.6 581.9,273.1" fill="rgb(20,22,25)" stroke="rgb(20,22,25)" stroke-width="0.7"/><polygon points="585.1,288.7 593.5,301.9 601.9,298.3 593.3,284.6" fill="rgb(17,18,21)" stroke="rgb(17,18,21)" stroke-width="0.7"/><polygon points="593.5,301.9 598.6,316.7 607.3,313.6 601.9,298.3" fill="rgb(16,17,19)" stroke="rgb(16,17,19)" stroke-width="0.7"/><polygon points="598.6,316.7 600.4,332.2 609.1,329.7 607.3,313.6" fill="rgb(16,17,19)" stroke="rgb(16,17,19)" stroke-width="0.7"/><polygon points="600.4,332.2 598.6,347.7 607.3,345.8 609.1,329.7" fill="rgb(16,17,19)" stroke="rgb(16,17,19)" stroke-width="0.7"/><polygon points="598.6,347.7 593.5,362.5 601.9,361.1 607.3,345.8" fill="rgb(16,17,19)" stroke="rgb(16,17,19)" stroke-width="0.7"/><polygon points="593.5,362.5 585.1,375.7 593.3,374.8 601.9,361.1" fill="rgb(16,17,19)" stroke="rgb(16,17,19)" stroke-width="0.7"/><polygon points="585.1,375.7 574.1,386.8 581.9,386.2 593.3,374.8" fill="rgb(16,17,19)" stroke="rgb(16,17,19)" stroke-width="0.7"/><polygon points="574.1,386.8 560.9,395.1 568.2,394.8 581.9,386.2" fill="rgb(16,17,19)" stroke="rgb(16,17,19)" stroke-width="0.7"/><polygon points="560.9,395.1 546.1,400.3 552.9,400.2 568.2,394.8" fill="rgb(16,17,19)" stroke="rgb(16,17,19)" stroke-width="0.7"/><polygon points="546.1,400.3 530.6,402 536.8,402 552.9,400.2" fill="rgb(16,17,19)" stroke="rgb(16,17,19)" stroke-width="0.7"/><polygon points="530.6,402 515.1,400.3 520.7,400.2 536.8,402" fill="rgb(16,17,19)" stroke="rgb(16,17,19)" stroke-width="0.7"/><polygon points="515.1,400.3 500.3,395.1 505.4,394.8 520.7,400.2" fill="rgb(16,17,19)" stroke="rgb(16,17,19)" stroke-width="0.7"/><polygon points="500.3,395.1 487.1,386.8 491.7,386.2 505.4,394.8" fill="rgb(16,17,19)" stroke="rgb(16,17,19)" stroke-width="0.7"/><polygon points="487.1,386.8 476,375.7 480.2,374.8 491.7,386.2" fill="rgb(16,17,19)" stroke="rgb(16,17,19)" stroke-width="0.7"/><polygon points="173.9,264.2 189.4,262.4 183.2,257.4 167.1,259.2" fill="rgb(29,31,36)" stroke="rgb(29,31,36)" stroke-width="0.7"/><polygon points="189.4,262.4 204.9,264.2 199.3,259.2 183.2,257.4" fill="rgb(28,30,34)" stroke="rgb(28,30,34)" stroke-width="0.7"/><polygon points="204.9,264.2 219.7,269.3 214.6,264.5 199.3,259.2" fill="rgb(26,27,32)" stroke="rgb(26,27,32)" stroke-width="0.7"/><polygon points="219.7,269.3 232.9,277.7 228.3,273.1 214.6,264.5" fill="rgb(23,25,29)" stroke="rgb(23,25,29)" stroke-width="0.7"/><polygon points="232.9,277.7 244,288.7 239.8,284.6 228.3,273.1" fill="rgb(20,22,25)" stroke="rgb(20,22,25)" stroke-width="0.7"/><polygon points="244,288.7 252.3,301.9 248.4,298.3 239.8,284.6" fill="rgb(17,18,21)" stroke="rgb(17,18,21)" stroke-width="0.7"/><polygon points="252.3,301.9 257.5,316.7 253.7,313.6 248.4,298.3" fill="rgb(16,17,19)" stroke="rgb(16,17,19)" stroke-width="0.7"/><polygon points="257.5,316.7 259.2,332.2 255.5,329.7 253.7,313.6" fill="rgb(16,17,19)" stroke="rgb(16,17,19)" stroke-width="0.7"/><polygon points="259.2,332.2 257.5,347.7 253.7,345.8 255.5,329.7" fill="rgb(16,17,19)" stroke="rgb(16,17,19)" stroke-width="0.7"/><polygon points="257.5,347.7 252.3,362.5 248.4,361.1 253.7,345.8" fill="rgb(16,17,19)" stroke="rgb(16,17,19)" stroke-width="0.7"/><polygon points="252.3,362.5 244,375.7 239.8,374.8 248.4,361.1" fill="rgb(16,17,19)" stroke="rgb(16,17,19)" stroke-width="0.7"/><polygon points="244,375.7 232.9,386.8 228.3,386.2 239.8,374.8" fill="rgb(16,17,19)" stroke="rgb(16,17,19)" stroke-width="0.7"/><polygon points="232.9,386.8 219.7,395.1 214.6,394.8 228.3,386.2" fill="rgb(16,17,19)" stroke="rgb(16,17,19)" stroke-width="0.7"/><polygon points="219.7,395.1 204.9,400.3 199.3,400.2 214.6,394.8" fill="rgb(16,17,19)" stroke="rgb(16,17,19)" stroke-width="0.7"/><polygon points="204.9,400.3 189.4,402 183.2,402 199.3,400.2" fill="rgb(16,17,19)" stroke="rgb(16,17,19)" stroke-width="0.7"/><polygon points="189.4,402 173.9,400.3 167.1,400.2 183.2,402" fill="rgb(16,17,19)" stroke="rgb(16,17,19)" stroke-width="0.7"/><polygon points="460.8,332.2 462.5,316.7 466.3,313.6 464.5,329.7" fill="rgb(23,25,29)" stroke="rgb(23,25,29)" stroke-width="0.7"/><polygon points="462.5,316.7 467.7,301.9 471.6,298.3 466.3,313.6" fill="rgb(26,28,32)" stroke="rgb(26,28,32)" stroke-width="0.7"/><polygon points="467.7,301.9 476,288.7 480.2,284.6 471.6,298.3" fill="rgb(28,30,34)" stroke="rgb(28,30,34)" stroke-width="0.7"/><polygon points="476,375.7 467.7,362.5 471.6,361.1 480.2,374.8" fill="rgb(16,17,19)" stroke="rgb(16,17,19)" stroke-width="0.7"/><polygon points="467.7,362.5 462.5,347.7 466.3,345.8 471.6,361.1" fill="rgb(17,18,21)" stroke="rgb(17,18,21)" stroke-width="0.7"/><polygon points="462.5,347.7 460.8,332.2 464.5,329.7 466.3,345.8" fill="rgb(20,22,25)" stroke="rgb(20,22,25)" stroke-width="0.7"/><polygon points="119.6,332.2 121.4,316.7 112.7,313.6 110.9,329.7" fill="rgb(23,25,29)" stroke="rgb(23,25,29)" stroke-width="0.7"/><polygon points="121.4,316.7 126.5,301.9 118.1,298.3 112.7,313.6" fill="rgb(26,28,32)" stroke="rgb(26,28,32)" stroke-width="0.7"/><polygon points="126.5,301.9 134.9,288.7 126.7,284.6 118.1,298.3" fill="rgb(28,30,34)" stroke="rgb(28,30,34)" stroke-width="0.7"/><polygon points="134.9,288.7 145.9,277.7 138.1,273.1 126.7,284.6" fill="rgb(29,31,36)" stroke="rgb(29,31,36)" stroke-width="0.7"/><polygon points="145.9,277.7 159.1,269.3 151.8,264.5 138.1,273.1" fill="rgb(30,32,37)" stroke="rgb(30,32,37)" stroke-width="0.7"/><polygon points="159.1,269.3 173.9,264.2 167.1,259.2 151.8,264.5" fill="rgb(30,32,37)" stroke="rgb(30,32,37)" stroke-width="0.7"/><polygon points="173.9,400.3 159.1,395.1 151.8,394.8 167.1,400.2" fill="rgb(16,17,19)" stroke="rgb(16,17,19)" stroke-width="0.7"/><polygon points="159.1,395.1 145.9,386.8 138.1,386.2 151.8,394.8" fill="rgb(16,17,19)" stroke="rgb(16,17,19)" stroke-width="0.7"/><polygon points="145.9,386.8 134.9,375.7 126.7,374.8 138.1,386.2" fill="rgb(16,17,19)" stroke="rgb(16,17,19)" stroke-width="0.7"/><polygon points="134.9,375.7 126.5,362.5 118.1,361.1 126.7,374.8" fill="rgb(16,17,19)" stroke="rgb(16,17,19)" stroke-width="0.7"/><polygon points="126.5,362.5 121.4,347.7 112.7,345.8 118.1,361.1" fill="rgb(17,18,21)" stroke="rgb(17,18,21)" stroke-width="0.7"/><polygon points="121.4,347.7 119.6,332.2 110.9,329.7 112.7,345.8" fill="rgb(20,22,25)" stroke="rgb(20,22,25)" stroke-width="0.7"/><polygon points="491.9,329.7 493.1,319.7 496.4,310.2 501.7,301.7 508.8,294.6 517.3,289.3 526.8,286 536.8,284.8 546.8,286 556.2,289.3 564.7,294.6 571.8,301.7 577.2,310.2 580.5,319.7 581.6,329.7 580.5,339.7 577.2,349.1 571.8,357.6 564.7,364.7 556.2,370.1 546.8,373.4 536.8,374.5 526.8,373.4 517.3,370.1 508.8,364.7 501.7,357.6 496.4,349.1 493.1,339.7" fill="rgb(165,171,179)" stroke="rgb(165,171,179)" stroke-width="0.7"/><polygon points="519.4,329.7 519.9,325.8 521.1,322.1 523.2,318.9 526,316.1 529.3,314 532.9,312.8 536.8,312.3 540.7,312.8 544.3,314 547.6,316.1 550.4,318.9 552.4,322.1 553.7,325.8 554.1,329.7 553.7,333.5 552.4,337.2 550.4,340.5 547.6,343.2 544.3,345.3 540.7,346.6 536.8,347 532.9,346.6 529.3,345.3 526,343.2 523.2,340.5 521.1,337.2 519.9,333.5" fill="rgb(102,107,115)" stroke="rgb(102,107,115)" stroke-width="0.7"/><line x1="536.8" y1="329.7" x2="494.8" y2="329.7" stroke="rgb(102,107,115)" stroke-width="2.8"/><line x1="536.8" y1="329.7" x2="523.8" y2="289.8" stroke="rgb(102,107,115)" stroke-width="2.8"/><line x1="536.8" y1="329.7" x2="570.7" y2="305" stroke="rgb(102,107,115)" stroke-width="2.8"/><line x1="536.8" y1="329.7" x2="570.7" y2="354.3" stroke="rgb(102,107,115)" stroke-width="2.8"/><line x1="536.8" y1="329.7" x2="523.8" y2="369.6" stroke="rgb(102,107,115)" stroke-width="2.8"/><polygon points="110.9,329.7 112.7,313.6 118.1,298.3 126.7,284.6 138.1,273.1 151.8,264.5 167.1,259.2 183.2,257.4 199.3,259.2 214.6,264.5 228.3,273.1 239.8,284.6 248.4,298.3 253.7,313.6 255.5,329.7 253.7,345.8 248.4,361.1 239.8,374.8 228.3,386.2 214.6,394.8 199.3,400.2 183.2,402 167.1,400.2 151.8,394.8 138.1,386.2 126.7,374.8 118.1,361.1 112.7,345.8" fill="rgb(26,28,33)" stroke="rgb(26,28,33)" stroke-width="0.7"/><polygon points="464.5,329.7 466.3,313.6 471.6,298.3 480.2,284.6 491.7,273.1 505.4,264.5 520.7,259.2 536.8,257.4 552.9,259.2 568.2,264.5 581.9,273.1 593.3,284.6 601.9,298.3 607.3,313.6 609.1,329.7 607.3,345.8 601.9,361.1 593.3,374.8 581.9,386.2 568.2,394.8 552.9,400.2 536.8,402 520.7,400.2 505.4,394.8 491.7,386.2 480.2,374.8 471.6,361.1 466.3,345.8" fill="rgb(26,28,33)" stroke="rgb(26,28,33)" stroke-width="0.7"/><polygon points="138.4,329.7 139.5,319.7 142.8,310.2 148.2,301.7 155.3,294.6 163.8,289.3 173.2,286 183.2,284.8 193.2,286 202.7,289.3 211.2,294.6 218.3,301.7 223.6,310.2 226.9,319.7 228.1,329.7 226.9,339.7 223.6,349.1 218.3,357.6 211.2,364.7 202.7,370.1 193.2,373.4 183.2,374.5 173.2,373.4 163.8,370.1 155.3,364.7 148.2,357.6 142.8,349.1 139.5,339.7" fill="rgb(165,171,179)" stroke="rgb(165,171,179)" stroke-width="0.7"/><polygon points="165.9,329.7 166.3,325.8 167.6,322.1 169.6,318.9 172.4,316.1 175.7,314 179.3,312.8 183.2,312.3 187.1,312.8 190.7,314 194,316.1 196.8,318.9 198.9,322.1 200.1,325.8 200.6,329.7 200.1,333.5 198.9,337.2 196.8,340.5 194,343.2 190.7,345.3 187.1,346.6 183.2,347 179.3,346.6 175.7,345.3 172.4,343.2 169.6,340.5 167.6,337.2 166.3,333.5" fill="rgb(102,107,115)" stroke="rgb(102,107,115)" stroke-width="0.7"/><line x1="183.2" y1="329.7" x2="141.3" y2="329.7" stroke="rgb(102,107,115)" stroke-width="2.8"/><line x1="183.2" y1="329.7" x2="170.3" y2="289.8" stroke="rgb(102,107,115)" stroke-width="2.8"/><line x1="183.2" y1="329.7" x2="217.1" y2="305" stroke="rgb(102,107,115)" stroke-width="2.8"/><line x1="183.2" y1="329.7" x2="217.1" y2="354.3" stroke="rgb(102,107,115)" stroke-width="2.8"/><line x1="183.2" y1="329.7" x2="170.3" y2="369.6" stroke="rgb(102,107,115)" stroke-width="2.8"/></g></svg>