<svg xmlns="http://www.w3.org/2000/svg" width="720" height="520" viewBox="0 0 720 520"><ellipse cx="360" cy="410" rx="270" ry="34" fill="#05070c" opacity="0.28"/><g stroke-linecap="round" stroke-linejoin="round"><polygon points="449.6,341.2 450.7,352.3 464.9,351.2 463.9,339.9" fill="rgb(25,27,31)" stroke="rgb(25,27,31)" stroke-width="0.7"/><polygon points="450.7,352.3 449.6,363.4 463.9,362.5 464.9,351.2" fill="rgb(28,30,34)" stroke="rgb(28,30,34)" stroke-width="0.7"/><polygon points="449.6,363.4 446.6,373.8 460.8,373.2 463.9,362.5" fill="rgb(30,32,37)" stroke="rgb(30,32,37)" stroke-width="0.7"/><polygon points="446.6,330.6 449.6,341.2 463.9,339.9 460.8,329" fill="rgb(22,23,27)" stroke="rgb(22,23,27)" stroke-width="0.7"/><polygon points="441.7,320.9 446.6,330.6 460.8,329 455.8,319.1" fill="rgb(18,19,22)" stroke="rgb(18,19,22)" stroke-width="0.7"/><polygon points="446.6,373.8 441.7,383.2 455.8,382.8 460.8,373.2" fill="rgb(32,34,39)" stroke="rgb(32,34,39)" stroke-width="0.7"/><polygon points="435.2,312.6 441.7,320.9 455.8,319.1 449.2,310.6" fill="rgb(16,17,19)" stroke="rgb(16,17,19)" stroke-width="0.7"/><polygon points="441.7,383.2 435.2,391.1 449.2,390.8 455.8,382.8" fill="rgb(32,35,40)" stroke="rgb(32,35,40)" stroke-width="0.7"/><line x1="408.9" y1="351" x2="428.8" y2="334.5" stroke="rgb(84,89,95)" stroke-width="2"/><line x1="408.9" y1="351" x2="428.8" y2="368.8" stroke="rgb(84,89,95)" stroke-width="2"/><polygon points="435.2,391.1 427.3,397 441.2,396.9 449.2,390.8" fill="rgb(32,34,40)" stroke="rgb(32,34,40)" stroke-width="0.7"/><polygon points="427.3,306.2 435.2,312.6 449.2,310.6 441.2,304" fill="rgb(16,17,19)" stroke="rgb(16,17,19)" stroke-width="0.7"/><polygon points="364.9,349.6 366,338 369.4,327.1 374.7,317.5 381.8,309.6 390.1,303.9 399.3,300.7 408.9,300 418.4,301.9 427.3,306.2 435.2,312.6 441.7,320.9 446.6,330.6 449.6,341.2 450.7,352.3 449.6,363.4 446.6,373.8 441.7,383.2 435.2,391.1 427.3,397 418.4,400.7 408.9,402 399.3,400.7 390.1,396.9 381.8,390.7 374.7,382.4 369.4,372.4 366,361.3" fill="rgb(22,23,27)" stroke="rgb(22,23,27)" stroke-width="0.7"/><polygon points="381.9,350.2 382.6,343 384.6,336.3 387.9,330.4 392.2,325.5 397.3,322 403,319.9 408.9,319.4 414.8,320.5 420.4,323.1 425.3,327.1 429.4,332.2 432.5,338.2 434.4,344.9 435.1,351.8 434.4,358.7 432.5,365.3 429.4,371.1 425.3,376 420.4,379.7 414.8,381.9 408.9,382.6 403,381.8 397.3,379.3 392.2,375.5 387.9,370.3 384.6,364.2 382.6,357.3" fill="rgb(137,141,148)" stroke="rgb(137,141,148)" stroke-width="0.7"/><polygon points="398.6,350.7 398.8,348 399.6,345.4 400.8,343.1 402.5,341.2 404.4,339.8 406.6,339 408.9,338.8 411.2,339.2 413.4,340.2 415.3,341.7 416.9,343.7 418.1,346 418.9,348.6 419.1,351.3 418.9,354 418.1,356.6 416.9,358.9 415.3,360.7 413.4,362.2 411.2,363 408.9,363.3 406.6,362.9 404.4,361.9 402.5,360.4 400.8,358.4 399.6,356.1 398.8,353.4" fill="rgb(84,89,95)" stroke="rgb(84,89,95)" stroke-width="0.7"/><polygon points="418.4,301.9 427.3,306.2 441.2,304 432.2,299.6" fill="rgb(16,17,19)" stroke="rgb(16,17,19)" stroke-width="0.7"/><polygon points="427.3,397 418.4,400.7 432.2,400.7 441.2,396.9" fill="rgb(31,34,39)" stroke="rgb(31,34,39)" stroke-width="0.7"/><line x1="408.9" y1="351" x2="401.2" y2="322.5" stroke="rgb(84,89,95)" stroke-width="2"/><line x1="408.9" y1="351" x2="401.2" y2="379" stroke="rgb(84,89,95)" stroke-width="2"/><line x1="408.9" y1="351" x2="383.7" y2="350.2" stroke="rgb(84,89,95)" stroke-width="2"/><polygon points="408.9,300 418.4,301.9 432.2,299.6 422.6,297.7" fill="rgb(16,17,19)" stroke="rgb(16,17,19)" stroke-width="0.7"/><polygon points="418.4,400.7 408.9,402 422.6,402 432.2,400.7" fill="rgb(30,32,37)" stroke="rgb(30,32,37)" stroke-width="0.7"/><polygon points="399.3,300.7 408.9,300 422.6,297.7 412.9,298.4" fill="rgb(30,32,37)" stroke="rgb(30,32,37)" stroke-width="0.7"/><polygon points="408.9,402 399.3,400.7 412.9,400.7 422.6,402" fill="rgb(16,17,19)" stroke="rgb(16,17,19)" stroke-width="0.7"/><polygon points="441.3,229.2 439.1,229.8 439.1,164.7 441.3,163.9" fill="rgb(132,173,198)" stroke="rgb(132,173,198)" stroke-width="0.7"/><line x1="422.6" y1="349.9" x2="442.7" y2="333" stroke="rgb(84,89,95)" stroke-width="2"/><line x1="422.6" y1="349.9" x2="442.7" y2="368.1" stroke="rgb(84,89,95)" stroke-width="2"/><polygon points="390.1,303.9 399.3,300.7 412.9,298.4 403.5,301.7" fill="rgb(31,34,39)" stroke="rgb(31,34,39)" stroke-width="0.7"/><polygon points="399.3,400.7 390.1,396.9 403.5,396.8 412.9,400.7" fill="rgb(16,17,19)" stroke="rgb(16,17,19)" stroke-width="0.7"/><polygon points="377.9,348.4 379.1,336.5 382.5,325.4 387.9,315.5 395,307.5 403.5,301.7 412.9,298.4 422.6,297.7 432.2,299.6 441.2,304 449.2,310.6 455.8,319.1 460.8,329 463.9,339.9 464.9,351.2 463.9,362.5 460.8,373.2 455.8,382.8 449.2,390.8 441.2,396.9 432.2,400.7 422.6,402 412.9,400.7 403.5,396.8 395,390.4 387.9,381.9 382.5,371.7 379.1,360.4" fill="rgb(22,23,27)" stroke="rgb(22,23,27)" stroke-width="0.7"/><polygon points="395.2,349 395.9,341.7 397.9,334.8 401.2,328.7 405.6,323.8 410.8,320.1 416.6,318 422.6,317.5 428.6,318.7 434.2,321.3 439.2,325.4 443.4,330.6 446.5,336.8 448.4,343.6 449.1,350.7 448.4,357.8 446.5,364.5 443.4,370.4 439.2,375.4 434.2,379.2 428.6,381.5 422.6,382.2 416.6,381.3 410.8,378.8 405.6,374.8 401.2,369.6 397.9,363.3 395.9,356.3" fill="rgb(137,141,148)" stroke="rgb(137,141,148)" stroke-width="0.7"/><polygon points="412.1,349.5 412.4,346.7 413.1,344.1 414.4,341.7 416.1,339.8 418,338.4 420.3,337.6 422.6,337.3 424.9,337.8 427.1,338.8 429.1,340.3 430.7,342.4 431.9,344.8 432.7,347.4 432.9,350.2 432.7,353 431.9,355.6 430.7,357.9 429.1,359.8 427.1,361.2 424.9,362.1 422.6,362.4 420.3,362 418,361 416.1,359.5 414.4,357.4 413.1,355 412.4,352.3" fill="rgb(84,89,95)" stroke="rgb(84,89,95)" stroke-width="0.7"/><line x1="422.6" y1="349.9" x2="414.8" y2="320.7" stroke="rgb(84,89,95)" stroke-width="2"/><line x1="422.6" y1="349.9" x2="414.8" y2="378.5" stroke="rgb(84,89,95)" stroke-width="2"/><polygon points="381.8,309.6 390.1,303.9 403.5,301.7 395,307.5" fill="rgb(32,34,40)" stroke="rgb(32,34,40)" stroke-width="0.7"/><polygon points="390.1,396.9 381.8,390.7 395,390.4 403.5,396.8" fill="rgb(16,17,19)" stroke="rgb(16,17,19)" stroke-width="0.7"/><polygon points="374.7,317.5 381.8,309.6 395,307.5 387.9,315.5" fill="rgb(32,35,40)" stroke="rgb(32,35,40)" stroke-width="0.7"/><polygon points="381.8,390.7 374.7,382.4 387.9,381.9 395,390.4" fill="rgb(16,17,19)" stroke="rgb(16,17,19)" stroke-width="0.7"/><line x1="422.6" y1="349.9" x2="397" y2="349" stroke="rgb(84,89,95)" stroke-width="2"/><polygon points="374.7,382.4 369.4,372.4 382.5,371.7 387.9,381.9" fill="rgb(18,19,22)" stroke="rgb(18,19,22)" stroke-width="0.7"/><polygon points="369.4,327.1 374.7,317.5 387.9,315.5 382.5,325.4" fill="rgb(32,34,39)" stroke="rgb(32,34,39)" stroke-width="0.7"/><polygon points="366,338 369.4,327.1 382.5,325.4 379.1,336.5" fill="rgb(30,32,37)" stroke="rgb(30,32,37)" stroke-width="0.7"/><polygon points="369.4,372.4 366,361.3 379.1,360.4 382.5,371.7" fill="rgb(22,23,27)" stroke="rgb(22,23,27)" stroke-width="0.7"/><polygon points="366,361.3 364.9,349.6 377.9,348.4 379.1,360.4" fill="rgb(25,27,31)" stroke="rgb(25,27,31)" stroke-width="0.7"/><polygon points="364.9,349.6 366,338 379.1,336.5 377.9,348.4" fill="rgb(28,30,34)" stroke="rgb(28,30,34)" stroke-width="0.7"/><polygon points="610.4,343.3 469.7,353.6 469.7,253 610.4,221.3" fill="rgb(39,99,175)" stroke="rgb(39,99,175)" stroke-width="0.7"/><polygon points="439.1,229.8 190.7,202.7 190.7,127.4 439.1,164.7" fill="rgb(109,142,163)" stroke="rgb(109,142,163)" stroke-width="0.7"/><polygon points="439.1,164.7 190.7,127.4 192.2,126.3 441.3,163.9" fill="rgb(143,187,213)" stroke="rgb(143,187,213)" stroke-width="0.7"/><polygon points="443.3,249 187.2,224.1 187.2,108.4 443.3,149.5" fill="rgb(25,67,122)" stroke="rgb(25,67,122)" stroke-width="0.7"/><polygon points="441.3,229.2 192.2,201.9 190.7,202.7 439.1,229.8" fill="rgb(143,187,213)" stroke="rgb(143,187,213)" stroke-width="0.7"/><polygon points="469.7,353.6 104.8,342.2 104.8,217.9 469.7,253" fill="rgb(32,81,144)" stroke="rgb(32,81,144)" stroke-width="0.7"/><polygon points="192.2,201.9 441.3,229.2 441.3,163.9 192.2,126.3" fill="rgb(109,142,163)" stroke="rgb(109,142,163)" stroke-width="0.7"/><polygon points="570,218.5 443.3,249 443.3,149.5 570,99.2" fill="rgb(30,81,148)" stroke="rgb(30,81,148)" stroke-width="0.7"/><polygon points="221.7,332.4 223,345.1 233.6,343.7 232.2,330.7" fill="rgb(25,27,31)" stroke="rgb(25,27,31)" stroke-width="0.7"/><polygon points="223,345.1 221.7,357.8 232.2,356.6 233.6,343.7" fill="rgb(28,30,34)" stroke="rgb(28,30,34)" stroke-width="0.7"/><polygon points="217.7,320.2 221.7,332.4 232.2,330.7 228.2,318.1" fill="rgb(22,23,27)" stroke="rgb(22,23,27)" stroke-width="0.7"/><polygon points="221.7,357.8 217.7,369.7 228.2,368.9 232.2,356.6" fill="rgb(30,32,37)" stroke="rgb(30,32,37)" stroke-width="0.7"/><polygon points="211.3,309.1 217.7,320.2 228.2,318.1 221.7,306.7" fill="rgb(18,19,22)" stroke="rgb(18,19,22)" stroke-width="0.7"/><polygon points="217.7,369.7 211.3,380.4 221.7,379.9 228.2,368.9" fill="rgb(32,34,39)" stroke="rgb(32,34,39)" stroke-width="0.7"/><polygon points="202.7,299.5 211.3,309.1 221.7,306.7 212.9,296.9" fill="rgb(16,17,19)" stroke="rgb(16,17,19)" stroke-width="0.7"/><polygon points="211.3,380.4 202.7,389.5 212.9,389.1 221.7,379.9" fill="rgb(32,35,40)" stroke="rgb(32,35,40)" stroke-width="0.7"/><line x1="168.1" y1="343.4" x2="194.3" y2="324.5" stroke="rgb(84,89,95)" stroke-width="2.3"/><line x1="168.1" y1="343.4" x2="194.3" y2="363.9" stroke="rgb(84,89,95)" stroke-width="2.3"/><polygon points="202.7,389.5 192.3,396.3 202.3,396.1 212.9,389.1" fill="rgb(32,34,40)" stroke="rgb(32,34,40)" stroke-width="0.7"/><polygon points="192.3,292 202.7,299.5 212.9,296.9 202.3,289.2" fill="rgb(16,17,19)" stroke="rgb(16,17,19)" stroke-width="0.7"/><polygon points="154.4,343 154.7,339.8 155.8,336.9 157.4,334.2 159.6,332.1 162.2,330.5 165.1,329.6 168.1,329.3 171.1,329.8 174,330.9 176.5,332.7 178.6,335 180.2,337.7 181.2,340.7 181.6,343.8 181.2,346.9 180.2,349.8 178.6,352.4 176.5,354.6 174,356.2 171.1,357.2 168.1,357.5 165.1,357 162.2,355.9 159.6,354.2 157.4,351.9 155.8,349.1 154.7,346.1" fill="rgb(84,89,95)" stroke="rgb(84,89,95)" stroke-width="0.7"/><polygon points="109.7,341.5 111.2,328.1 115.6,315.6 122.7,304.5 132.1,295.5 143.2,289.1 155.4,285.5 168.1,284.8 180.6,287 192.3,292 202.7,299.5 211.3,309.1 217.7,320.2 221.7,332.4 223,345.1 221.7,357.8 217.7,369.7 211.3,380.4 202.7,389.5 192.3,396.3 180.6,400.5 168.1,402 155.4,400.5 143.2,396.1 132.1,389 122.7,379.4 115.6,367.9 111.2,355" fill="rgb(22,23,27)" stroke="rgb(22,23,27)" stroke-width="0.7"/><polygon points="132.3,342.3 133.2,334 135.9,326.3 140.2,319.5 145.9,313.9 152.7,309.9 160.2,307.6 168.1,307 175.9,308.4 183.2,311.4 189.7,316 195.1,321.9 199.2,328.9 201.7,336.5 202.5,344.5 201.7,352.4 199.2,359.9 195.1,366.6 189.7,372.2 183.2,376.3 175.9,378.9 168.1,379.7 160.2,378.7 152.7,375.9 145.9,371.4 140.2,365.5 135.9,358.4 133.2,350.5" fill="rgb(137,141,148)" stroke="rgb(137,141,148)" stroke-width="0.7"/><polygon points="192.3,396.3 180.6,400.5 190.3,400.5 202.3,396.1" fill="rgb(31,34,39)" stroke="rgb(31,34,39)" stroke-width="0.7"/><polygon points="180.6,287 192.3,292 202.3,289.2 190.3,284" fill="rgb(16,17,19)" stroke="rgb(16,17,19)" stroke-width="0.7"/><line x1="168.1" y1="343.4" x2="157.9" y2="310.6" stroke="rgb(84,89,95)" stroke-width="2.3"/><line x1="168.1" y1="343.4" x2="157.9" y2="375.6" stroke="rgb(84,89,95)" stroke-width="2.3"/><line x1="168.1" y1="343.4" x2="134.6" y2="342.3" stroke="rgb(84,89,95)" stroke-width="2.3"/><polygon points="168.1,284.8 180.6,287 190.3,284 177.5,281.7" fill="rgb(16,17,19)" stroke="rgb(16,17,19)" stroke-width="0.7"/><polygon points="180.6,400.5 168.1,402 177.5,402 190.3,400.5" fill="rgb(30,32,37)" stroke="rgb(30,32,37)" stroke-width="0.7"/><polygon points="168.1,402 155.4,400.5 164.6,400.5 177.5,402" fill="rgb(16,17,19)" stroke="rgb(16,17,19)" stroke-width="0.7"/><polygon points="155.4,285.5 168.1,284.8 177.5,281.7 164.6,282.4" fill="rgb(30,32,37)" stroke="rgb(30,32,37)" stroke-width="0.7"/><line x1="177.5" y1="341.9" x2="204.3" y2="322.5" stroke="rgb(84,89,95)" stroke-width="2.3"/><line x1="177.5" y1="341.9" x2="204.3" y2="362.9" stroke="rgb(84,89,95)" stroke-width="2.3"/><polygon points="190.7,202.7 192.2,201.9 192.2,126.3 190.7,127.4" fill="rgb(132,173,198)" stroke="rgb(132,173,198)" stroke-width="0.7"/><polygon points="155.4,400.5 143.2,396.1 152.1,396 164.6,400.5" fill="rgb(16,17,19)" stroke="rgb(16,17,19)" stroke-width="0.7"/><polygon points="143.2,289.1 155.4,285.5 164.6,282.4 152.1,286.1" fill="rgb(31,34,39)" stroke="rgb(31,34,39)" stroke-width="0.7"/><polygon points="163.6,341.4 163.9,338.2 164.9,335.1 166.6,332.4 168.8,330.2 171.5,328.6 174.4,327.7 177.5,327.4 180.6,327.9 183.5,329.1 186.1,330.9 188.3,333.3 190,336 191,339.1 191.3,342.3 191,345.5 190,348.5 188.3,351.2 186.1,353.4 183.5,355 180.6,356 177.5,356.3 174.4,355.8 171.5,354.7 168.8,352.9 166.6,350.6 164.9,347.7 163.9,344.6" fill="rgb(84,89,95)" stroke="rgb(84,89,95)" stroke-width="0.7"/><polygon points="141,340.7 141.9,332.2 144.7,324.3 149.1,317.3 154.9,311.6 161.9,307.5 169.5,305.1 177.5,304.6 185.5,305.9 193,309 199.6,313.8 205.1,319.9 209.3,327 211.8,334.8 212.7,343 211.8,351.1 209.3,358.8 205.1,365.7 199.6,371.4 193,375.7 185.5,378.3 177.5,379.1 169.5,378.1 161.9,375.2 154.9,370.6 149.1,364.5 144.7,357.2 141.9,349.1" fill="rgb(137,141,148)" stroke="rgb(137,141,148)" stroke-width="0.7"/><polygon points="117.8,339.9 119.4,326.1 123.9,313.2 131.2,301.9 140.8,292.7 152.1,286.1 164.6,282.4 177.5,281.7 190.3,284 202.3,289.2 212.9,296.9 221.7,306.7 228.2,318.1 232.2,330.7 233.6,343.7 232.2,356.6 228.2,368.9 221.7,379.9 212.9,389.1 202.3,396.1 190.3,400.5 177.5,402 164.6,400.5 152.1,396 140.8,388.6 131.2,378.8 123.9,367 119.4,353.8" fill="rgb(22,23,27)" stroke="rgb(22,23,27)" stroke-width="0.7"/><line x1="177.5" y1="341.9" x2="167.1" y2="308.1" stroke="rgb(84,89,95)" stroke-width="2.4"/><line x1="177.5" y1="341.9" x2="167.1" y2="374.9" stroke="rgb(84,89,95)" stroke-width="2.4"/><polygon points="143.2,396.1 132.1,389 140.8,388.6 152.1,396" fill="rgb(16,17,19)" stroke="rgb(16,17,19)" stroke-width="0.7"/><polygon points="132.1,295.5 143.2,289.1 152.1,286.1 140.8,292.7" fill="rgb(32,34,40)" stroke="rgb(32,34,40)" stroke-width="0.7"/><polygon points="132.1,389 122.7,379.4 131.2,378.8 140.8,388.6" fill="rgb(16,17,19)" stroke="rgb(16,17,19)" stroke-width="0.7"/><polygon points="122.7,304.5 132.1,295.5 140.8,292.7 131.2,301.9" fill="rgb(32,35,40)" stroke="rgb(32,35,40)" stroke-width="0.7"/><line x1="177.5" y1="341.9" x2="143.4" y2="340.7" stroke="rgb(84,89,95)" stroke-width="2.4"/><polygon points="122.7,379.4 115.6,367.9 123.9,367 131.2,378.8" fill="rgb(18,19,22)" stroke="rgb(18,19,22)" stroke-width="0.7"/><polygon points="115.6,315.6 122.7,304.5 131.2,301.9 123.9,313.2" fill="rgb(32,34,39)" stroke="rgb(32,34,39)" stroke-width="0.7"/><polygon points="570,218.5 278.2,181.5 187.2,224.1 443.3,249" fill="rgb(32,88,160)" stroke="rgb(32,88,160)" stroke-width="0.7"/><polygon points="443.3,149.5 187.2,108.4 278.2,38.2 570,99.2" fill="rgb(18,48,87)" stroke="rgb(18,48,87)" stroke-width="0.7"/><polygon points="115.6,367.9 111.2,355 119.4,353.8 123.9,367" fill="rgb(22,23,27)" stroke="rgb(22,23,27)" stroke-width="0.7"/><polygon points="111.2,328.1 115.6,315.6 123.9,313.2 119.4,326.1" fill="rgb(30,32,37)" stroke="rgb(30,32,37)" stroke-width="0.7"/><polygon points="109.7,341.5 111.2,328.1 119.4,326.1 117.8,339.9" fill="rgb(28,30,34)" stroke="rgb(28,30,34)" stroke-width="0.7"/><polygon points="111.2,355 109.7,341.5 117.8,339.9 119.4,353.8" fill="rgb(25,27,31)" stroke="rgb(25,27,31)" stroke-width="0.7"/><polygon points="469.7,253 104.8,217.9 187.1,167 610.4,221.3" fill="rgb(23,58,103)" stroke="rgb(23,58,103)" stroke-width="0.7"/><polygon points="610.4,343.3 187.1,325.6 104.8,342.2 469.7,353.6" fill="rgb(42,107,188)" stroke="rgb(42,107,188)" stroke-width="0.7"/><polygon points="188.7,218.9 108.6,210.9 108.6,192.2 188.7,111.7" fill="rgb(109,142,163)" stroke="rgb(109,142,163)" stroke-width="0.7"/><polygon points="596.9,327.3 598,341 619.6,339.3 618.4,325.3" fill="rgb(25,27,31)" stroke="rgb(25,27,31)" stroke-width="0.7"/><polygon points="598,341 596.9,354.5 618.4,353.2 619.6,339.3" fill="rgb(28,30,34)" stroke="rgb(28,30,34)" stroke-width="0.7"/><polygon points="596.9,354.5 593.5,367.3 615,366.4 618.4,353.2" fill="rgb(30,32,37)" stroke="rgb(30,32,37)" stroke-width="0.7"/><polygon points="593.5,314.2 596.9,327.3 618.4,325.3 615,311.8" fill="rgb(22,23,27)" stroke="rgb(22,23,27)" stroke-width="0.7"/><polygon points="568.1,194.6 565,195.5 565,117.4 568.1,116.3" fill="rgb(132,173,198)" stroke="rgb(132,173,198)" stroke-width="0.7"/><polygon points="593.5,367.3 588.1,378.9 609.5,378.2 615,366.4" fill="rgb(32,34,39)" stroke="rgb(32,34,39)" stroke-width="0.7"/><polygon points="588.1,302.2 593.5,314.2 615,311.8 609.5,299.5" fill="rgb(18,19,22)" stroke="rgb(18,19,22)" stroke-width="0.7"/><polygon points="588.1,378.9 580.8,388.5 602.1,388.2 609.5,378.2" fill="rgb(32,35,40)" stroke="rgb(32,35,40)" stroke-width="0.7"/><polygon points="580.8,291.9 588.1,302.2 609.5,299.5 602.1,288.9" fill="rgb(16,17,19)" stroke="rgb(16,17,19)" stroke-width="0.7"/><line x1="551.2" y1="339" x2="573.6" y2="318.8" stroke="rgb(84,89,95)" stroke-width="2.4"/><line x1="551.2" y1="339" x2="573.6" y2="361.1" stroke="rgb(84,89,95)" stroke-width="2.4"/><polygon points="580.8,388.5 571.9,395.8 593.2,395.7 602.1,388.2" fill="rgb(32,34,40)" stroke="rgb(32,34,40)" stroke-width="0.7"/><polygon points="571.9,283.8 580.8,291.9 602.1,288.9 593.2,280.6" fill="rgb(16,17,19)" stroke="rgb(16,17,19)" stroke-width="0.7"/><polygon points="501.3,336.8 502.6,322.4 506.4,308.8 512.5,296.9 520.5,287.3 530,280.4 540.4,276.6 551.2,275.9 561.9,278.4 571.9,283.8 580.8,291.9 588.1,302.2 593.5,314.2 596.9,327.3 598,341 596.9,354.5 593.5,367.3 588.1,378.9 580.8,388.5 571.9,395.8 561.9,400.4 551.2,402 540.4,400.4 530,395.7 520.5,388 512.5,377.6 506.4,365.2 502.6,351.4" fill="rgb(22,23,27)" stroke="rgb(22,23,27)" stroke-width="0.7"/><polygon points="539.6,338.5 539.9,335.1 540.7,331.9 542.1,329.1 544,326.8 546.2,325.1 548.7,324.1 551.2,323.8 553.8,324.3 556.3,325.6 558.4,327.5 560.3,330 561.6,332.9 562.5,336.1 562.7,339.5 562.5,342.8 561.6,345.9 560.3,348.7 558.4,351 556.3,352.8 553.8,353.8 551.2,354.1 548.7,353.6 546.2,352.4 544,350.5 542.1,348.1 540.7,345.1 539.9,341.9" fill="rgb(84,89,95)" stroke="rgb(84,89,95)" stroke-width="0.7"/><polygon points="520.7,337.6 521.5,328.8 523.8,320.5 527.5,313.2 532.3,307.2 538.1,302.9 544.5,300.4 551.2,299.9 557.9,301.3 564.1,304.6 569.7,309.6 574.3,316 577.7,323.4 579.9,331.7 580.6,340.2 579.9,348.7 577.7,356.7 574.3,363.9 569.7,369.9 564.1,374.4 557.9,377.2 551.2,378 544.5,377 538.1,373.9 532.3,369.1 527.5,362.7 523.8,355.1 521.5,346.6" fill="rgb(137,141,148)" stroke="rgb(137,141,148)" stroke-width="0.7"/><polygon points="571.9,395.8 561.9,400.4 583.1,400.4 593.2,395.7" fill="rgb(31,34,39)" stroke="rgb(31,34,39)" stroke-width="0.7"/><polygon points="561.9,278.4 571.9,283.8 593.2,280.6 583.1,274.9" fill="rgb(16,17,19)" stroke="rgb(16,17,19)" stroke-width="0.7"/><line x1="551.2" y1="339" x2="542.5" y2="303.6" stroke="rgb(84,89,95)" stroke-width="2.5"/><line x1="551.2" y1="339" x2="542.5" y2="373.6" stroke="rgb(84,89,95)" stroke-width="2.5"/><line x1="551.2" y1="339" x2="522.7" y2="337.7" stroke="rgb(84,89,95)" stroke-width="2.5"/><polygon points="551.2,275.9 561.9,278.4 583.1,274.9 572.2,272.4" fill="rgb(16,17,19)" stroke="rgb(16,17,19)" stroke-width="0.7"/><polygon points="561.9,400.4 551.2,402 572.2,402 583.1,400.4" fill="rgb(30,32,37)" stroke="rgb(30,32,37)" stroke-width="0.7"/><polygon points="551.2,402 540.4,400.4 561.3,400.4 572.2,402" fill="rgb(16,17,19)" stroke="rgb(16,17,19)" stroke-width="0.7"/><polygon points="540.4,276.6 551.2,275.9 572.2,272.4 561.3,273" fill="rgb(30,32,37)" stroke="rgb(30,32,37)" stroke-width="0.7"/><line x1="572.2" y1="337.2" x2="594.9" y2="316.4" stroke="rgb(84,89,95)" stroke-width="2.5"/><line x1="572.2" y1="337.2" x2="594.9" y2="359.9" stroke="rgb(84,89,95)" stroke-width="2.5"/><polygon points="530,280.4 540.4,276.6 561.3,273 550.7,276.9" fill="rgb(31,34,39)" stroke="rgb(31,34,39)" stroke-width="0.7"/><polygon points="540.4,400.4 530,395.7 550.7,395.5 561.3,400.4" fill="rgb(16,17,19)" stroke="rgb(16,17,19)" stroke-width="0.7"/><polygon points="560.4,336.6 560.7,333.2 561.6,329.9 563,327 564.9,324.6 567.1,322.9 569.6,321.9 572.2,321.6 574.9,322.2 577.3,323.4 579.5,325.4 581.4,328 582.8,330.9 583.6,334.3 583.9,337.7 583.6,341.1 582.8,344.4 581.4,347.2 579.5,349.6 577.3,351.4 574.9,352.4 572.2,352.7 569.6,352.3 567.1,351 564.9,349.1 563,346.5 561.6,343.5 560.7,340.2" fill="rgb(84,89,95)" stroke="rgb(84,89,95)" stroke-width="0.7"/><polygon points="521.6,334.9 522.9,320.1 526.8,306.1 532.9,293.9 541.1,284 550.7,276.9 561.3,273 572.2,272.4 583.1,274.9 593.2,280.6 602.1,288.9 609.5,299.5 615,311.8 618.4,325.3 619.6,339.3 618.4,353.2 615,366.4 609.5,378.2 602.1,388.2 593.2,395.7 583.1,400.4 572.2,402 561.3,400.4 550.7,395.5 541.1,387.6 532.9,376.9 526.8,364.1 522.9,349.9" fill="rgb(22,23,27)" stroke="rgb(22,23,27)" stroke-width="0.7"/><polygon points="541.2,335.8 542,326.7 544.4,318.2 548.1,310.6 553.1,304.5 559,300 565.5,297.5 572.2,297 579,298.5 585.3,301.9 590.9,307 595.6,313.6 599.1,321.3 601.2,329.7 602,338.5 601.2,347.2 599.1,355.5 595.6,362.9 590.9,369 585.3,373.6 579,376.5 572.2,377.4 565.5,376.2 559,373.1 553.1,368.2 548.1,361.6 544.4,353.7 542,345" fill="rgb(137,141,148)" stroke="rgb(137,141,148)" stroke-width="0.7"/><line x1="572.2" y1="337.2" x2="563.4" y2="300.8" stroke="rgb(84,89,95)" stroke-width="2.5"/><line x1="572.2" y1="337.2" x2="563.4" y2="372.8" stroke="rgb(84,89,95)" stroke-width="2.5"/><polygon points="520.5,287.3 530,280.4 550.7,276.9 541.1,284" fill="rgb(32,34,40)" stroke="rgb(32,34,40)" stroke-width="0.7"/><polygon points="530,395.7 520.5,388 541.1,387.6 550.7,395.5" fill="rgb(16,17,19)" stroke="rgb(16,17,19)" stroke-width="0.7"/><polygon points="512.5,296.9 520.5,287.3 541.1,284 532.9,293.9" fill="rgb(32,35,40)" stroke="rgb(32,35,40)" stroke-width="0.7"/><polygon points="520.5,388 512.5,377.6 532.9,376.9 541.1,387.6" fill="rgb(16,17,19)" stroke="rgb(16,17,19)" stroke-width="0.7"/><line x1="572.2" y1="337.2" x2="543.3" y2="335.9" stroke="rgb(84,89,95)" stroke-width="2.6"/><polygon points="506.4,308.8 512.5,296.9 532.9,293.9 526.8,306.1" fill="rgb(32,34,39)" stroke="rgb(32,34,39)" stroke-width="0.7"/><polygon points="512.5,377.6 506.4,365.2 526.8,364.1 532.9,376.9" fill="rgb(18,19,22)" stroke="rgb(18,19,22)" stroke-width="0.7"/><polygon points="502.6,322.4 506.4,308.8 526.8,306.1 522.9,320.1" fill="rgb(30,32,37)" stroke="rgb(30,32,37)" stroke-width="0.7"/><polygon points="506.4,365.2 502.6,351.4 522.9,349.9 526.8,364.1" fill="rgb(22,23,27)" stroke="rgb(22,23,27)" stroke-width="0.7"/><polygon points="501.3,336.8 502.6,322.4 522.9,320.1 521.6,334.9" fill="rgb(28,30,34)" stroke="rgb(28,30,34)" stroke-width="0.7"/><polygon points="502.6,351.4 501.3,336.8 521.6,334.9 522.9,349.9" fill="rgb(25,27,31)" stroke="rgb(25,27,31)" stroke-width="0.7"/><polygon points="187.2,224.1 278.2,181.5 278.2,38.2 187.2,108.4" fill="rgb(30,81,148)" stroke="rgb(30,81,148)" stroke-width="0.7"/><polygon points="188.7,111.7 188.7,218.9 275.8,177.1 275.8,45.5" fill="rgb(132,173,198)" stroke="rgb(132,173,198)" stroke-width="0.7"/><polygon points="565,195.5 282,155.3 282,62.1 565,117.4" fill="rgb(109,142,163)" stroke="rgb(109,142,163)" stroke-width="0.7"/><polygon points="278.2,181.5 570,218.5 570,99.2 278.2,38.2" fill="rgb(25,67,122)" stroke="rgb(25,67,122)" stroke-width="0.7"/><polygon points="565,117.4 282,62.1 284.3,60.4 568.1,116.3" fill="rgb(143,187,213)" stroke="rgb(143,187,213)" stroke-width="0.7"/><polygon points="568.1,194.6 284.3,154 282,155.3 565,195.5" fill="rgb(143,187,213)" stroke="rgb(143,187,213)" stroke-width="0.7"/><polygon points="284.3,154 568.1,194.6 568.1,116.3 284.3,60.4" fill="rgb(109,142,163)" stroke="rgb(109,142,163)" stroke-width="0.7"/><polygon points="188.7,218.9 108.6,210.9 181.1,164.9 275.8,177.1" fill="rgb(78,102,116)" stroke="rgb(78,102,116)" stroke-width="0.7"/><polygon points="108.6,192.2 188.7,111.7 275.8,45.5 181.1,141.8" fill="rgb(162,211,241)" stroke="rgb(162,211,241)" stroke-width="0.7"/><polygon points="187.1,325.6 610.4,343.3 610.4,221.3 187.1,167" fill="rgb(32,81,144)" stroke="rgb(32,81,144)" stroke-width="0.7"/><polygon points="104.8,342.2 187.1,325.6 187.1,167 104.8,217.9" fill="rgb(39,99,175)" stroke="rgb(39,99,175)" stroke-width="0.7"/><polygon points="108.6,210.9 108.6,192.2 181.1,141.8 181.1,164.9" fill="rgb(132,173,198)" stroke="rgb(132,173,198)" stroke-width="0.7"/><polygon points="334.2,313.5 335.8,329.7 353,327.4 351.4,310.7" fill="rgb(25,27,31)" stroke="rgb(25,27,31)" stroke-width="0.7"/><polygon points="335.8,329.7 334.2,345.7 351.4,343.9 353,327.4" fill="rgb(28,30,34)" stroke="rgb(28,30,34)" stroke-width="0.7"/><polygon points="329.5,297.9 334.2,313.5 351.4,310.7 346.6,294.6" fill="rgb(22,23,27)" stroke="rgb(22,23,27)" stroke-width="0.7"/><polygon points="334.2,345.7 329.5,360.9 346.6,359.6 351.4,343.9" fill="rgb(30,32,37)" stroke="rgb(30,32,37)" stroke-width="0.7"/><polygon points="321.9,283.7 329.5,297.9 346.6,294.6 338.7,279.8" fill="rgb(18,19,22)" stroke="rgb(18,19,22)" stroke-width="0.7"/><polygon points="329.5,360.9 321.9,374.6 338.7,373.7 346.6,359.6" fill="rgb(32,34,39)" stroke="rgb(32,34,39)" stroke-width="0.7"/><polygon points="282,155.3 284.3,154 284.3,60.4 282,62.1" fill="rgb(132,173,198)" stroke="rgb(132,173,198)" stroke-width="0.7"/><polygon points="311.6,271.3 321.9,283.7 338.7,279.8 328.2,267" fill="rgb(16,17,19)" stroke="rgb(16,17,19)" stroke-width="0.7"/><polygon points="321.9,374.6 311.6,386 328.2,385.5 338.7,373.7" fill="rgb(32,35,40)" stroke="rgb(32,35,40)" stroke-width="0.7"/><line x1="269.8" y1="326.9" x2="301.4" y2="303.1" stroke="rgb(84,89,95)" stroke-width="2.9"/><line x1="269.8" y1="326.9" x2="301.4" y2="353.4" stroke="rgb(84,89,95)" stroke-width="2.9"/><polygon points="311.6,386 299.1,394.7 315.4,394.4 328.2,385.5" fill="rgb(32,34,40)" stroke="rgb(32,34,40)" stroke-width="0.7"/><polygon points="299.1,261.6 311.6,271.3 328.2,267 315.4,256.9" fill="rgb(16,17,19)" stroke="rgb(16,17,19)" stroke-width="0.7"/><polygon points="226.2,325 227.3,314.4 230.6,304.5 235.9,295.8 242.9,288.7 251.2,283.7 260.3,280.8 269.8,280.3 279.2,282.1 288.1,286.1 295.9,292.1 302.5,299.8 307.3,308.7 310.3,318.5 311.3,328.7 310.3,338.7 307.3,348.3 302.5,356.8 295.9,363.9 288.1,369.2 279.2,372.4 269.8,373.4 260.3,372.1 251.2,368.5 242.9,362.7 235.9,355 230.6,345.8 227.3,335.7" fill="rgb(137,141,148)" stroke="rgb(137,141,148)" stroke-width="0.7"/><polygon points="253.2,326.2 253.6,322.1 254.9,318.3 256.9,315 259.5,312.2 262.6,310.2 266.1,309.1 269.8,308.8 273.5,309.5 276.9,311 280,313.3 282.6,316.3 284.5,319.7 285.7,323.6 286.1,327.6 285.7,331.5 284.5,335.3 282.6,338.6 280,341.3 276.9,343.4 273.5,344.6 269.8,344.9 266.1,344.3 262.6,342.9 259.5,340.6 256.9,337.6 254.9,334.1 253.6,330.2" fill="rgb(84,89,95)" stroke="rgb(84,89,95)" stroke-width="0.7"/><polygon points="198.4,323.8 200.3,306.5 205.7,290.3 214.5,276.2 226,264.8 239.5,256.7 254.4,252.3 269.8,251.7 285,254.9 299.1,261.6 311.6,271.3 321.9,283.7 329.5,297.9 334.2,313.5 335.8,329.7 334.2,345.7 329.5,360.9 321.9,374.6 311.6,386 299.1,394.7 285,400.1 269.8,402 254.4,400.1 239.5,394.4 226,385.2 214.5,372.8 205.7,357.9 200.3,341.3" fill="rgb(22,23,27)" stroke="rgb(22,23,27)" stroke-width="0.7"/><polygon points="285,254.9 299.1,261.6 315.4,256.9 301,250" fill="rgb(16,17,19)" stroke="rgb(16,17,19)" stroke-width="0.7"/><polygon points="299.1,394.7 285,400.1 301,400.1 315.4,394.4" fill="rgb(31,34,39)" stroke="rgb(31,34,39)" stroke-width="0.7"/><line x1="269.8" y1="326.9" x2="257.4" y2="284.6" stroke="rgb(84,89,95)" stroke-width="2.9"/><line x1="269.8" y1="326.9" x2="257.4" y2="368.1" stroke="rgb(84,89,95)" stroke-width="2.9"/><line x1="269.8" y1="326.9" x2="229.1" y2="325.1" stroke="rgb(84,89,95)" stroke-width="3"/><polygon points="275.8,177.1 181.1,164.9 181.1,141.8 275.8,45.5" fill="rgb(109,142,163)" stroke="rgb(109,142,163)" stroke-width="0.7"/><polygon points="269.8,251.7 285,254.9 301,250 285.5,246.7" fill="rgb(16,17,19)" stroke="rgb(16,17,19)" stroke-width="0.7"/><polygon points="285,400.1 269.8,402 285.5,402 301,400.1" fill="rgb(30,32,37)" stroke="rgb(30,32,37)" stroke-width="0.7"/><polygon points="254.4,252.3 269.8,251.7 285.5,246.7 269.7,247.2" fill="rgb(30,32,37)" stroke="rgb(30,32,37)" stroke-width="0.7"/><polygon points="269.8,402 254.4,400.1 269.7,400 285.5,402" fill="rgb(16,17,19)" stroke="rgb(16,17,19)" stroke-width="0.7"/><line x1="285.5" y1="324.3" x2="317.8" y2="299.8" stroke="rgb(84,89,95)" stroke-width="3"/><line x1="285.5" y1="324.3" x2="317.8" y2="351.8" stroke="rgb(84,89,95)" stroke-width="3"/><polygon points="239.5,256.7 254.4,252.3 269.7,247.2 254.4,251.7" fill="rgb(31,34,39)" stroke="rgb(31,34,39)" stroke-width="0.7"/><polygon points="254.4,400.1 239.5,394.4 254.4,394.2 269.7,400" fill="rgb(16,17,19)" stroke="rgb(16,17,19)" stroke-width="0.7"/><polygon points="268.4,323.6 268.9,319.4 270.1,315.5 272.2,312 274.9,309.2 278.1,307.1 281.7,305.9 285.5,305.7 289.2,306.4 292.8,307.9 295.9,310.3 298.6,313.4 300.5,317 301.8,320.9 302.2,325.1 301.8,329.2 300.5,333 298.6,336.4 295.9,339.3 292.8,341.4 289.2,342.6 285.5,343 281.7,342.4 278.1,340.9 274.9,338.5 272.2,335.4 270.1,331.8 268.9,327.8" fill="rgb(84,89,95)" stroke="rgb(84,89,95)" stroke-width="0.7"/><polygon points="240.8,322.3 241.9,311.4 245.3,301.1 250.7,292.1 257.9,284.8 266.4,279.6 275.7,276.7 285.5,276.2 295.1,278.1 304.2,282.2 312.2,288.5 318.9,296.4 323.9,305.6 326.9,315.7 328,326.2 326.9,336.6 323.9,346.5 318.9,355.3 312.2,362.6 304.2,368.1 295.1,371.4 285.5,372.5 275.7,371.1 266.4,367.3 257.9,361.3 250.7,353.4 245.3,343.9 241.9,333.4" fill="rgb(137,141,148)" stroke="rgb(137,141,148)" stroke-width="0.7"/><polygon points="212.2,321 214.1,303.1 219.7,286.4 228.7,271.8 240.5,260 254.4,251.7 269.7,247.2 285.5,246.7 301,250 315.4,256.9 328.2,267 338.7,279.8 346.6,294.6 351.4,310.7 353,327.4 351.4,343.9 346.6,359.6 338.7,373.7 328.2,385.5 315.4,394.4 301,400.1 285.5,402 269.7,400 254.4,394.2 240.5,384.6 228.7,371.8 219.7,356.4 214.1,339.1" fill="rgb(22,23,27)" stroke="rgb(22,23,27)" stroke-width="0.7"/><line x1="285.5" y1="324.3" x2="272.8" y2="280.6" stroke="rgb(84,89,95)" stroke-width="3"/><line x1="285.5" y1="324.3" x2="272.8" y2="366.9" stroke="rgb(84,89,95)" stroke-width="3"/><polygon points="239.5,394.4 226,385.2 240.5,384.6 254.4,394.2" fill="rgb(16,17,19)" stroke="rgb(16,17,19)" stroke-width="0.7"/><polygon points="226,264.8 239.5,256.7 254.4,251.7 240.5,260" fill="rgb(32,34,40)" stroke="rgb(32,34,40)" stroke-width="0.7"/><polygon points="214.5,276.2 226,264.8 240.5,260 228.7,271.8" fill="rgb(32,35,40)" stroke="rgb(32,35,40)" stroke-width="0.7"/><polygon points="226,385.2 214.5,372.8 228.7,371.8 240.5,384.6" fill="rgb(16,17,19)" stroke="rgb(16,17,19)" stroke-width="0.7"/><line x1="285.5" y1="324.3" x2="243.7" y2="322.5" stroke="rgb(84,89,95)" stroke-width="3.1"/><polygon points="205.7,290.3 214.5,276.2 228.7,271.8 219.7,286.4" fill="rgb(32,34,39)" stroke="rgb(32,34,39)" stroke-width="0.7"/><polygon points="214.5,372.8 205.7,357.9 219.7,356.4 228.7,371.8" fill="rgb(18,19,22)" stroke="rgb(18,19,22)" stroke-width="0.7"/><polygon points="205.7,357.9 200.3,341.3 214.1,339.1 219.7,356.4" fill="rgb(22,23,27)" stroke="rgb(22,23,27)" stroke-width="0.7"/><polygon points="200.3,306.5 205.7,290.3 219.7,286.4 214.1,303.1" fill="rgb(30,32,37)" stroke="rgb(30,32,37)" stroke-width="0.7"/><polygon points="198.4,323.8 200.3,306.5 214.1,303.1 212.2,321" fill="rgb(28,30,34)" stroke="rgb(28,30,34)" stroke-width="0.7"/><polygon points="200.3,341.3 198.4,323.8 212.2,321 214.1,339.1" fill="rgb(25,27,31)" stroke="rgb(25,27,31)" stroke-width="0.7"/></g></svg>