<svg width="49" height="36" viewBox="0 0 49 36" fill="none" xmlns="http://www.w3.org/2000/svg">
<path d="M5.15923 27.9006C5.73747 27.0464 6.70182 26.5347 7.73337 26.5347H40.4352C41.439 26.5347 42.3811 27.0195 42.9646 27.8363L44.9438 30.6072C46.4134 32.6646 44.9428 35.5224 42.4144 35.5224H5.85774C3.36511 35.5224 1.88634 32.7357 3.2836 30.6715L5.15923 27.9006Z" fill="#365CC1"/>
<path d="M19.4141 28.0874H29.3274" stroke="white" stroke-linecap="round"/>
<path d="M38.834 0C40.5506 0.000141045 41.9424 1.39176 41.9424 3.1084V23.4268C41.9424 25.1434 40.5506 26.535 38.834 26.5352H9.09961C7.38289 26.5351 5.99121 25.1435 5.99121 23.4268V3.1084C5.99123 1.39169 7.3829 1.89849e-05 9.09961 0H38.834ZM11.3691 1.65234C9.6524 1.65234 8.26074 3.044 8.26074 4.76074V21.6748C8.26074 23.3915 9.6524 24.7832 11.3691 24.7832H36.5449C38.2615 24.783 39.6533 23.3914 39.6533 21.6748V4.76074C39.6533 3.04414 38.2615 1.65257 36.5449 1.65234H11.3691Z" fill="#365CC1"/>
<path d="M31.8979 11.4388C30.2158 11.4388 29.528 10.2908 30.3645 8.88259C30.8477 8.06639 30.5596 7.02597 29.7139 6.55957L28.1061 5.67162C27.3719 5.25006 26.4239 5.5012 25.9871 6.20977L25.8849 6.38018C25.0484 7.78835 23.6729 7.78835 22.8272 6.38018L22.725 6.20977C22.3067 5.5012 21.3588 5.25006 20.6246 5.67162L19.0167 6.55957C18.171 7.02597 17.8829 8.07536 18.3662 8.89156C19.2119 10.2908 18.5242 11.4388 16.842 11.4388C15.8754 11.4388 15.0762 12.2012 15.0762 13.1429V14.7215C15.0762 15.6543 15.8661 16.4257 16.842 16.4257C18.5242 16.4257 19.2119 17.5737 18.3662 18.9819C17.8829 19.7981 18.171 20.8385 19.0167 21.3049L20.6246 22.1929C21.3588 22.6144 22.3067 22.3634 22.7436 21.6547L22.8458 21.4843C23.6822 20.0761 25.0577 20.0761 25.9034 21.4843L26.0057 21.6547C26.4425 22.3634 27.3905 22.6144 28.1247 22.1929L29.7325 21.3049C30.5782 20.8385 30.8663 19.7891 30.3831 18.9819C29.5373 17.5737 30.2251 16.4257 31.9072 16.4257C32.8738 16.4257 33.6731 15.6633 33.6731 14.7215V13.1429C33.6638 12.2101 32.8738 11.4388 31.8979 11.4388ZM24.37 16.8472C22.7064 16.8472 21.3495 15.5377 21.3495 13.9322C21.3495 12.3267 22.7064 11.0173 24.37 11.0173C26.0336 11.0173 27.3905 12.3267 27.3905 13.9322C27.3905 15.5377 26.0336 16.8472 24.37 16.8472Z" fill="#365CC1"/>
</svg>
